<?xml version="1.0" standalone="no"?>
<!DOCTYPE svg PUBLIC "-//W3C//DTD SVG 1.1//EN" "http://www.w3.org/Graphics/SVG/1.1/DTD/svg11.dtd" >
<svg xmlns="http://www.w3.org/2000/svg">
<metadata>Generated by IcoMoon</metadata>
<defs>
<font id="icon54com" horiz-adv-x="1024">
<font-face units-per-em="1024" ascent="960" descent="-64" />
<missing-glyph horiz-adv-x="1024" />
<glyph unicode="&#x20;" horiz-adv-x="512" d="" />
<glyph unicode="&#xe900;" glyph-name="Gallery-1" d="M1017.173 564.053l-204.8 129.707c-6.827 3.413-10.24 3.413-17.067 0s-10.24-10.24-10.24-17.067v-433.493c0-27.307-23.893-51.2-51.2-51.2h-303.787c-6.827 0-13.653-3.413-17.067-13.653-3.413-6.827 0-13.653 6.827-20.48l269.653-170.667c3.413-3.413 6.827-3.413 10.24-3.413 0 0 3.413 0 3.413 0 3.413 0 6.827 3.413 10.24 6.827l307.2 546.133c6.827 13.653 3.413 23.893-3.413 27.307zM730.453 226.133c0 0 0 0 0 0v0c13.653 0 20.48 6.827 20.48 17.067v648.533c0 10.24-6.827 17.067-17.067 17.067h-716.8c-10.24 0-17.067-6.827-17.067-17.067v-648.533c0-3.413 0-6.827 3.413-6.827 0 0 0 0 0 0s0 0 0 0c0-3.413 3.413-3.413 3.413-3.413s0 0 3.413 0 3.413-3.413 6.827-3.413c0-3.413 713.387-3.413 713.387-3.413zM716.8 874.667v-566.613l-208.213 419.84c-3.413 6.827-10.24 10.24-13.653 10.24v0c-6.827 0-13.653-3.413-13.653-10.24l-143.36-283.307-102.4 116.053c-3.413 3.413-10.24 6.827-13.653 6.827-6.827 0-10.24-3.413-13.653-6.827l-174.080-259.413v573.44h682.667zM307.2 721.067c0-47.128-38.205-85.333-85.333-85.333s-85.333 38.205-85.333 85.333c0 47.128 38.205 85.333 85.333 85.333s85.333-38.205 85.333-85.333z" />
<glyph unicode="&#xe901;" glyph-name="by4-Hour" d="M512 840.533c-10.24 0-17.067 6.827-17.067 17.067v68.267c0 10.24 6.827 17.067 17.067 17.067s17.067-6.827 17.067-17.067v-68.267c0-10.24-6.827-17.067-17.067-17.067zM307.2 785.92c-6.827 0-10.24 3.413-13.653 6.827l-34.133 58.027c-6.827 10.24-3.413 20.48 6.827 27.307 6.827 3.413 17.067 0 20.48-6.827l34.133-58.027c6.827-10.24 3.413-20.48-3.413-23.893-3.413-3.413-6.827-3.413-10.24-3.413zM157.013 635.733c-3.413 0-6.827 0-10.24 3.413l-58.027 34.133c-6.827 3.413-10.24 13.653-6.827 20.48s13.653 10.24 23.893 6.827l58.027-34.133c10.24-3.413 13.653-13.653 6.827-23.893-3.413-3.413-6.827-6.827-13.653-6.827zM102.4 430.933h-68.267c-10.24 0-17.067 6.827-17.067 17.067s6.827 17.067 17.067 17.067h68.267c10.24 0 17.067-6.827 17.067-17.067s-6.827-17.067-17.067-17.067zM98.987 192c-6.827 0-10.24 3.413-13.653 10.24s-3.413 17.067 6.827 23.893l58.027 34.133c6.827 3.413 17.067 3.413 23.893-6.827 3.413-6.827 3.413-17.067-6.827-23.893l-58.027-34.133c-6.827-3.413-6.827-3.413-10.24-3.413zM273.067 17.92c-3.413 0-6.827 0-10.24 3.413-6.827 3.413-10.24 13.653-6.827 23.893l34.133 58.027c6.827 6.827 17.067 10.24 27.307 3.413 6.827-3.413 10.24-13.653 6.827-23.893l-34.133-58.027c-6.827-3.413-10.24-6.827-17.067-6.827zM512-46.933c-10.24 0-17.067 6.827-17.067 17.067v68.267c0 10.24 6.827 17.067 17.067 17.067s17.067-6.827 17.067-17.067v-68.267c0-10.24-6.827-17.067-17.067-17.067zM750.933 17.92c-6.827 0-10.24 3.413-13.653 10.24l-34.133 58.027c-3.413 6.827-3.413 17.067 6.827 23.893 6.827 3.413 17.067 3.413 23.893-6.827l34.133-58.027c3.413-6.827 3.413-17.067-6.827-23.893-3.413-3.413-6.827-3.413-10.24-3.413zM925.013 192c-3.413 0-6.827 0-10.24 3.413l-58.027 34.133c-6.827 3.413-10.24 13.653-6.827 23.893 3.413 6.827 13.653 10.24 23.893 6.827l58.027-34.133c6.827-3.413 10.24-13.653 6.827-23.893 0-6.827-6.827-10.24-13.653-10.24zM989.867 430.933h-68.267c-10.24 0-17.067 6.827-17.067 17.067s6.827 17.067 17.067 17.067h68.267c10.24 0 17.067-6.827 17.067-17.067s-6.827-17.067-17.067-17.067zM866.987 635.733c-6.827 0-10.24 3.413-13.653 10.24s-3.413 17.067 6.827 23.893l58.027 34.133c6.827 3.413 17.067 3.413 23.893-6.827 3.413-6.827 3.413-17.067-6.827-23.893l-58.027-34.133c-3.413-3.413-6.827-3.413-10.24-3.413zM716.8 785.92c-3.413 0-6.827 0-10.24 3.413-6.827 3.413-10.24 13.653-6.827 23.893l34.133 58.027c3.413 6.827 13.653 10.24 23.893 6.827 6.827-3.413 10.24-13.653 6.827-23.893l-34.133-58.027c-3.413-6.827-6.827-10.24-13.653-10.24zM989.867 430.933h-477.867c-10.24 0-17.067 6.827-17.067 17.067v477.867c0 10.24 6.827 17.067 17.067 17.067 273.067 0 494.933-221.867 494.933-494.933 0-10.24-6.827-17.067-17.067-17.067zM529.067 465.067h443.733c-10.24 238.933-201.387 433.493-443.733 443.733v-443.733z" />
<glyph unicode="&#xe902;" glyph-name="Addon" d="M920.849 573.167c-31.027 0-49.289-11.947-66.97-23.484-8.397-5.495-18.603-5.734-27.273-0.546-8.806 5.222-13.517 14.473-12.732 24.201l22.289 197.018c0.546 4.813-0.99 9.66-4.233 13.278s-7.851 5.7-12.732 5.7h-199.1c-14.097 0-27.068-7.68-33.86-20.105-6.758-12.356-6.281-27.443 1.331-39.287 8.738-13.619 14.916-24.747 14.916-44.1 0-37.649-39.765-67.14-90.522-67.14s-90.522 29.491-90.522 67.14c0 19.319 6.212 30.481 14.916 44.1 7.612 11.844 8.090 26.897 1.331 39.287-6.793 12.39-19.763 20.105-33.86 20.105h-199.031c-4.881 0-9.489-2.082-12.732-5.7s-4.779-8.431-4.233-13.278l22.221-196.506c0.853-10.24-3.891-19.49-12.663-24.713-8.636-5.154-18.876-4.983-28.843 1.57-16.111 10.513-34.372 22.46-65.399 22.46-56.9 0-103.151-56.149-103.151-125.167s46.251-125.167 103.151-125.167c31.027 0 49.289 11.947 66.97 23.484 8.397 5.495 18.603 5.734 27.273 0.546 8.806-5.222 13.517-14.473 12.732-24.201l-22.289-197.018c-0.546-4.813 0.99-9.66 4.233-13.278s7.851-5.7 12.732-5.7h199.1c14.097 0 27.068 7.68 33.86 20.105 6.758 12.356 6.281 27.443-1.331 39.287-8.738 13.619-14.916 24.747-14.916 44.1 0 37.649 39.765 67.14 90.522 67.14s90.522-29.491 90.522-67.14c0-19.319-6.212-30.481-14.916-44.1-7.612-11.844-8.090-26.897-1.331-39.287 6.793-12.39 19.763-20.105 33.86-20.105h199.031c4.881 0 9.489 2.082 12.732 5.7s4.779 8.431 4.233 13.278l-22.221 196.506c-0.853 10.24 3.891 19.49 12.663 24.713 8.67 5.154 18.876 4.983 28.843-1.57 16.111-10.513 34.372-22.46 65.399-22.46 56.9 0 103.151 56.149 103.151 125.167s-46.251 125.167-103.151 125.167zM920.815 357.001c-20.855 0-32.256 7.475-48.299 17.954-19.319 12.561-43.588 13.073-63.42 1.263-19.9-11.878-31.13-33.69-29.15-57.378l20.139-178.039h-179.917c-2.287 0-3.447 1.468-3.925 2.355-0.614 1.058-1.058 2.697 0.102 4.506 10.718 16.691 20.309 34.065 20.309 62.532 0 56.798-54.75 101.274-124.655 101.274s-124.655-44.476-124.655-101.274c0-28.501 9.626-45.841 20.309-62.532 1.126-1.809 0.683-3.447 0.102-4.506-0.478-0.887-1.638-2.355-3.925-2.355h-179.917l20.173 178.517c1.946 23.211-9.25 44.988-29.184 56.866-19.831 11.844-44.1 11.366-64.99-2.287-14.473-9.455-25.873-16.93-46.729-16.93-38.059 0-69.018 40.823-69.018 91.034s30.959 91.034 69.018 91.034c20.855 0 32.256-7.475 48.299-17.954 19.319-12.595 43.588-13.107 63.42-1.263 19.9 11.878 31.13 33.69 29.15 57.378l-20.139 178.039h179.917c2.287 0 3.447-1.468 3.925-2.355 0.614-1.058 1.058-2.697-0.102-4.506-10.718-16.691-20.309-34.065-20.309-62.532 0-56.798 54.75-101.274 124.655-101.274s124.655 44.476 124.655 101.274c0 28.501-9.626 45.841-20.309 62.532-1.126 1.809-0.683 3.447-0.102 4.506 0.478 0.887 1.638 2.355 3.925 2.355h179.917l-20.173-178.517c-1.946-23.211 9.25-44.988 29.184-56.866 19.797-11.81 44.1-11.332 64.99 2.287 14.473 9.455 25.873 16.93 46.729 16.93 38.059 0 69.018-40.823 69.018-91.034s-30.959-91.034-69.018-91.034z" />
<glyph unicode="&#xe903;" glyph-name="Addon-Setting" d="M426.667 209.067h-194.56c-17.067 0-30.72 6.827-40.96 20.48s-13.653 27.307-10.24 44.373c34.133 139.947 30.72 191.147 23.893 197.973-17.067 0-27.307-10.24-40.96-20.48s-34.133-23.893-61.44-23.893c-61.44 0-102.4 75.093-102.4 126.293s40.96 126.293 102.4 126.293c30.72 0 47.787-13.653 61.44-23.893s23.893-17.067 44.373-17.067c3.413 6.827 6.827 58.027-27.307 197.973-3.413 17.067 0 30.72 10.24 44.373 10.24 3.413 27.307 10.24 40.96 10.24h191.147c13.653 0 27.307-10.24 34.133-23.893s3.413-30.72-10.24-40.96c-20.48-20.48-30.72-40.96-30.72-61.44 0-40.96 47.787-47.787 92.16-47.787s92.16 6.827 92.16 47.787c0 20.48-10.24 40.96-30.72 61.44-10.24 10.24-13.653 27.307-10.24 40.96 6.827 13.653 20.48 23.893 34.133 23.893h191.147c17.067 0 30.72-6.827 40.96-20.48s13.653-27.307 10.24-44.373c-34.133-139.947-30.72-191.147-23.893-197.973 17.067 0 27.307 10.24 40.96 20.48s34.133 23.893 61.44 23.893c61.44 0 102.4-75.093 102.4-126.293 0-20.48-6.827-40.96-17.067-61.44-3.413-6.827-13.653-10.24-23.893-6.827-6.827 3.413-10.24 13.653-6.827 23.893 6.827 17.067 13.653 34.133 13.653 47.787 0 34.133-30.72 92.16-68.267 92.16-20.48 0-30.72-6.827-40.96-17.067-13.653-10.24-34.133-23.893-64.853-23.893-10.24 0-17.067 3.413-23.893 13.653s-30.72 37.547 17.067 225.28c0 6.827 0 10.24-3.413 13.653 3.413 0-3.413 3.413-6.827 3.413h-191.147c0 0-3.413 0-3.413-3.413 0 0 0-3.413 0-3.413 27.307-27.307 40.96-54.613 40.96-85.333s-17.067-81.92-126.293-81.92-126.293 51.2-126.293 81.92c0 30.72 13.653 58.027 40.96 85.333 0 0 0 3.413 0 3.413 3.413 3.413 0 3.413 0 3.413h-194.56c-3.413 0-10.24-3.413-13.653-6.827 0-3.413-3.413-10.24 0-13.653 47.787-191.147 23.893-218.453 17.067-225.28s-13.653-13.653-23.893-13.653c-30.72 0-51.2 13.653-64.853 23.893s-23.893 20.48-44.373 20.48c-37.547 0-68.267-58.027-68.267-92.16s30.72-92.16 68.267-92.16c20.48 0 30.72 6.827 40.96 17.067 13.653 10.24 34.133 23.893 64.853 23.893 10.24 0 17.067-3.413 23.893-13.653s30.72-37.547-17.067-225.28c0-6.827 0-10.24 3.413-13.653s10.24-3.413 13.653-3.413h191.147c0 0 3.413 0 3.413 3.413 0 0 0 3.413 0 3.413-27.307 27.307-40.96 54.613-40.96 85.333s17.067 81.92 126.293 81.92h6.827c10.24 0 17.067-10.24 17.067-17.067 0-10.24-6.827-17.067-17.067-17.067 0 0-3.413 0-3.413 0l-3.413-3.413c-40.96 0-92.16-6.827-92.16-47.787 0-20.48 10.24-40.96 30.72-61.44 10.24-10.24 13.653-27.307 10.24-40.96-6.827-13.653-20.48-20.48-34.133-20.48zM785.067 140.8c-58.027 0-102.4 44.373-102.4 102.4s44.373 102.4 102.4 102.4 102.4-44.373 102.4-102.4-44.373-102.4-102.4-102.4zM785.067 311.467c-37.547 0-68.267-30.72-68.267-68.267s30.72-68.267 68.267-68.267 68.267 30.72 68.267 68.267-30.72 68.267-68.267 68.267zM832.853 4.267c-6.827 0-13.653 3.413-17.067 10.24-10.24 23.893-51.2 23.893-61.44 0-3.413-6.827-10.24-10.24-20.48-10.24-47.787 10.24-88.747 34.133-122.88 68.267-6.827 6.827-6.827 13.653 0 20.48 10.24 10.24 10.24 27.307 3.413 40.96s-20.48 20.48-34.133 17.067c-6.827 0-17.067 3.413-20.48 10.24-10.24 27.307-13.653 54.613-13.653 81.92 0 20.48 3.413 40.96 6.827 64.853 0 3.413 3.413 6.827 6.827 10.24s10.24 3.413 13.653 0c13.653-3.413 30.72 3.413 37.547 17.067s6.827 34.133-6.827 44.373c-3.413 3.413-6.827 6.827-6.827 10.24s0 10.24 3.413 13.653c34.133 37.547 75.093 64.853 126.293 78.507 3.413 0 10.24 0 13.653-3.413s6.827-6.827 6.827-13.653c3.413-17.067 17.067-30.72 34.133-30.72s30.72 13.653 34.133 30.72c0 3.413 3.413 10.24 6.827 13.653s10.24 3.413 13.653 3.413c47.787-10.24 92.16-37.547 126.293-78.507 3.413-3.413 3.413-6.827 3.413-13.653 0-3.413-3.413-10.24-6.827-10.24-13.653-10.24-17.067-30.72-6.827-44.373 6.827-13.653 23.893-20.48 37.547-17.067 3.413 0 10.24 0 13.653 0 3.413-3.413 6.827-6.827 6.827-10.24 6.827-20.48 6.827-40.96 6.827-64.853 0-27.307-3.413-54.613-13.653-81.92-3.413-6.827-10.24-13.653-20.48-10.24-13.653 3.413-27.307-3.413-34.133-17.067v0c-6.827-13.653-6.827-27.307 3.413-40.96 3.413-6.827 3.413-17.067 0-20.48-34.133-34.133-75.093-58.027-122.88-68.267 3.413 0 3.413 0 3.413 0zM785.067 69.12c20.48 0 40.96-10.24 54.613-27.307 30.72 10.24 58.027 23.893 81.92 47.787-10.24 20.48-6.827 44.373 3.413 64.853v0c10.24 20.48 34.133 34.133 58.027 34.133 6.827 20.48 6.827 37.547 6.827 58.027 0 13.653 0 27.307-3.413 40.96-23.893 0-47.787 13.653-61.44 34.133-13.653 23.893-10.24 54.613 3.413 75.093-23.893 23.893-51.2 40.96-81.92 51.2-10.24-23.893-34.133-40.96-61.44-40.96s-51.2 17.067-61.44 40.96c-30.72-10.24-58.027-27.307-81.92-51.2 13.653-20.48 17.067-51.2 3.413-75.093s-34.133-37.547-61.44-34.133c-3.413-17.067-3.413-30.72-3.413-44.373 0-20.48 3.413-37.547 6.827-58.027 23.893 0 44.373-13.653 58.027-34.133 10.24-20.48 10.24-44.373 3.413-64.853 23.893-23.893 51.2-37.547 81.92-47.787 13.653 20.48 34.133 30.72 54.613 30.72z" />
<glyph unicode="&#xe904;" glyph-name="Angry-Birds" d="M614.4-64c-204.8 0-494.933 105.813-494.933 341.333 0 218.453 157.013 477.867 290.133 477.867 10.24 0 17.067-6.827 17.067-17.067s-6.827-17.067-17.067-17.067c-105.813 0-256-228.693-256-443.733 0-211.627 269.653-307.2 460.8-307.2 228.693 0 375.467 146.773 375.467 375.467 0 245.76-259.413 375.467-262.827 378.88-6.827 0-10.24 6.827-10.24 13.653 0 105.813-133.12 187.733-187.733 187.733-51.2 0-85.333-13.653-85.333-34.133 3.413-20.48 112.64-102.4 153.6-102.4 10.24 0 17.067-6.827 17.067-17.067s-6.827-17.067-17.067-17.067c-54.613 0-187.733 92.16-187.733 136.533 0 40.96 44.373 68.267 119.467 68.267 71.68 0 215.040-92.16 221.867-211.627 47.787-27.307 273.067-160.427 273.067-402.773 0-249.173-160.427-409.6-409.6-409.6zM426.667 721.067c-30.72 0-119.467 0-119.467 85.333 0 13.653 3.413 27.307 13.653 37.547 20.48 17.067 58.027 17.067 102.4 13.653 13.653 0 27.307 0 37.547 0s17.067-6.827 17.067-17.067-6.827-17.067-17.067-17.067c-13.653 0-27.307 0-40.96 0-30.72 0-64.853 3.413-75.093-6.827 0 0-3.413-3.413-3.413-10.24 0-27.307 10.24-51.2 85.333-51.2 10.24 0 17.067-6.827 17.067-17.067s-6.827-17.067-17.067-17.067zM153.6 413.867c-6.827 0-10.24 3.413-13.653 6.827l-68.267 102.4c-6.827 6.827-3.413 17.067 3.413 23.893s17.067 3.413 23.893-3.413l68.267-102.4c6.827-6.827 3.413-17.067-3.413-23.893-3.413-3.413-6.827-3.413-10.24-3.413zM136.533 379.733h-119.467c-10.24 0-17.067 6.827-17.067 17.067v68.267c0 6.827 3.413 10.24 6.827 13.653 6.827 3.413 10.24 3.413 17.067 0l119.467-68.267c6.827-3.413 10.24-10.24 6.827-20.48s-6.827-10.24-13.653-10.24zM34.133 413.867h37.547l-37.547 20.48v-20.48zM51.2 311.467c-6.827 0-10.24 3.413-13.653 6.827-3.413 6.827-3.413 17.067 6.827 23.893l85.333 51.2c6.827 3.413 17.067 3.413 23.893-6.827 3.413-6.827 3.413-17.067-6.827-23.893l-85.333-51.2c-3.413 0-6.827 0-10.24 0zM692.907 280.747c-3.413 0-10.24 0-13.653 3.413-13.653 10.24-88.747 13.653-102.4 0-6.827-6.827-17.067-6.827-23.893 0s-6.827 17.067 0 23.893c30.72 30.72 129.707 20.48 153.6 0 6.827-6.827 6.827-17.067 0-23.893-6.827-3.413-10.24-3.413-13.653-3.413zM587.093 308.053c-3.413 0-10.24 0-13.653 3.413-13.653 13.653-27.307 40.96-27.307 68.267 0 23.893 10.24 44.373 27.307 61.44 6.827 6.827 17.067 6.827 23.893 0s6.827-17.067 0-23.893c-10.24-10.24-17.067-20.48-17.067-37.547 0-20.48 10.24-37.547 17.067-44.373s6.827-17.067 0-23.893c-3.413-3.413-6.827-3.413-10.24-3.413zM768 311.467c-3.413 0-6.827 0-6.827 3.413l-238.933 136.533c-6.827 3.413-10.24 13.653-6.827 23.893l34.133 68.267c3.413 3.413 6.827 6.827 10.24 10.24 3.413 0 10.24 0 13.653-3.413l194.56-129.707 177.493 112.64c6.827 3.413 17.067 3.413 23.893-6.827 3.413-6.827 3.413-17.067-6.827-23.893l-187.733-119.467c-6.827-3.413-13.653-3.413-17.067 0l-187.733 126.293-17.067-37.547 215.040-122.88 201.387 119.467c6.827 3.413 17.067 3.413 23.893-6.827 3.413-6.827 3.413-17.067-6.827-23.893l-208.213-122.88c-3.413-3.413-6.827-3.413-10.24-3.413zM938.667 106.667c-3.413 0-6.827 0-10.24 3.413 0 0-64.853 47.787-143.36 47.787-34.133 0-64.853 10.24-88.747 17.067-40.96 13.653-61.44 17.067-85.333-10.24-3.413-6.827-13.653-6.827-20.48-6.827-6.827 3.413-10.24 10.24-10.24 17.067 0 71.68 129.707 157.013 184.32 170.667 3.413 0 6.827 0 10.24 0 40.96-17.067 197.973-126.293 197.973-204.8 0-10.24-6.827-17.067-17.067-17.067v0c0-3.413 0-6.827-3.413-10.24s-10.24-6.827-13.653-6.827zM648.533 219.307c20.48 0 37.547-6.827 58.027-13.653 23.893-6.827 47.787-17.067 78.507-17.067 71.68 0 129.707-30.72 153.6-47.787-6.827 51.2-119.467 143.36-170.667 167.253-37.547-10.24-98.987-51.2-129.707-92.16 3.413 3.413 6.827 3.413 10.24 3.413zM750.933 38.4c-3.413 0-3.413 0-6.827 0-17.067 6.827-163.84 58.027-163.84 136.533 0 10.24 6.827 17.067 17.067 17.067s17.067-6.827 17.067-17.067c0-37.547 78.507-81.92 136.533-102.4 17.067 10.24 68.267 44.373 109.227 88.747 6.827 6.827 17.067 6.827 23.893 3.413 6.827-6.827 6.827-17.067 3.413-23.893-51.2-64.853-122.88-102.4-126.293-102.4s-6.827 0-10.24 0zM679.253 93.013c-3.413 0-10.24 0-13.653 3.413-6.827 6.827-6.827 17.067 0 23.893 20.48 20.48 95.573 58.027 109.227 68.267 6.827 3.413 17.067 0 23.893-6.827 3.413-6.827 0-17.067-6.827-23.893-34.133-17.067-92.16-47.787-102.4-61.44-3.413 0-6.827-3.413-10.24-3.413zM836.267 277.333c-3.413 0-10.24 0-13.653 3.413-6.827 6.827-6.827 17.067 0 23.893l3.413 3.413c13.653 13.653 34.133 37.547 75.093 40.96 0 17.067 0 23.893-10.24 30.72-6.827 6.827-10.24 17.067-3.413 23.893s17.067 10.24 23.893 3.413c27.307-17.067 23.893-40.96 23.893-61.44 0-3.413 0-10.24 0-13.653s0-10.24-3.413-13.653-6.827-6.827-13.653-6.827c-37.547 0-54.613-17.067-68.267-30.72l-3.413-6.827c0 3.413-6.827 3.413-10.24 3.413zM273.067 52.053c-3.413 0-10.24 0-13.653 3.413-6.827 6.827-6.827 17.067 0 23.893 109.227 109.227 228.693 163.84 354.987 163.84 10.24 0 17.067-6.827 17.067-17.067s-6.827-17.067-17.067-17.067c-116.053 0-228.693-51.2-327.68-153.6-3.413-3.413-10.24-3.413-13.653-3.413zM887.467 345.6c0-18.851-15.282-34.133-34.133-34.133s-34.133 15.282-34.133 34.133c0 18.851 15.282 34.133 34.133 34.133s34.133-15.282 34.133-34.133zM682.667 345.6c0-18.851-15.282-34.133-34.133-34.133s-34.133 15.282-34.133 34.133c0 18.851 15.282 34.133 34.133 34.133s34.133-15.282 34.133-34.133z" />
<glyph unicode="&#xe905;" glyph-name="Application" d="M175.65 248.183c3.345-3.311 7.714-4.983 12.083-4.983s8.738 1.673 12.049 4.949l136.533 136.533c6.656 6.656 6.656 17.476 0 24.132l-136.533 136.533c-6.656 6.656-17.476 6.656-24.132 0s-6.656-17.476 0-24.132l124.45-124.45-124.45-124.45c-6.656-6.656-6.656-17.476 0-24.132zM392.533 277.333h238.933c9.421 0 17.067 7.646 17.067 17.067s-7.646 17.067-17.067 17.067h-238.933c-9.421 0-17.067-7.646-17.067-17.067s7.646-17.067 17.067-17.067zM221.867 891.733c-9.421 0-17.067-7.646-17.067-17.067s7.646-17.067 17.067-17.067 17.067 7.646 17.067 17.067-7.646 17.067-17.067 17.067zM119.467 891.733c-9.421 0-17.067-7.646-17.067-17.067s7.646-17.067 17.067-17.067 17.067 7.646 17.067 17.067-7.646 17.067-17.067 17.067zM938.667 960h-853.333c-47.070 0-85.333-38.298-85.333-85.333v-853.333c0-47.036 38.263-85.333 85.333-85.333h853.333c47.070 0 85.333 38.298 85.333 85.333v853.333c0 47.036-38.263 85.333-85.333 85.333zM989.867 21.333c0-28.228-22.972-51.2-51.2-51.2h-853.333c-28.228 0-51.2 22.972-51.2 51.2v768h955.733v-768zM989.867 823.467h-955.733v51.2c0 28.228 22.972 51.2 51.2 51.2h853.333c28.228 0 51.2-22.972 51.2-51.2v-51.2zM324.267 891.733c-9.421 0-17.067-7.646-17.067-17.067s7.646-17.067 17.067-17.067 17.067 7.646 17.067 17.067-7.646 17.067-17.067 17.067z" />
<glyph unicode="&#xe906;" glyph-name="Atom" d="M498.347 362.667c-47.787 0-85.333 37.547-85.333 85.333s37.547 85.333 85.333 85.333 85.333-37.547 85.333-85.333-40.96-85.333-85.333-85.333zM498.347 499.2c-27.307 0-51.2-23.893-51.2-51.2s23.893-51.2 51.2-51.2 51.2 23.893 51.2 51.2-23.893 51.2-51.2 51.2zM498.347-46.933c-105.813 0-187.733 218.453-187.733 494.933s81.92 494.933 187.733 494.933c20.48 0 37.547-6.827 58.027-20.48 3.413-3.413 6.827-6.827 6.827-10.24s0-10.24-3.413-13.653c-3.413-3.413-6.827-10.24-6.827-20.48 0-23.893 23.893-40.96 47.787-30.72 6.827 3.413 17.067 0 20.48-10.24 44.373-92.16 68.267-235.52 68.267-385.707-3.413-279.893-88.747-498.347-191.147-498.347zM498.347 908.8c-71.68 0-153.6-187.733-153.6-460.8s81.92-460.8 153.6-460.8 153.6 187.733 153.6 460.8c0 139.947-20.48 269.653-58.027 358.4-40.96-6.827-78.507 27.307-78.507 68.267 0 10.24 3.413 20.48 6.827 27.307-10.24 3.413-17.067 6.827-23.893 6.827zM583.68 806.4c-37.547 0-68.267 30.72-68.267 68.267s30.72 68.267 68.267 68.267 68.267-30.72 68.267-68.267-30.72-68.267-68.267-68.267zM583.68 908.8c-20.48 0-34.133-13.653-34.133-34.133s13.653-34.133 34.133-34.133 34.133 13.653 34.133 34.133-17.067 34.133-34.133 34.133zM774.827 151.040c-3.413 0-3.413 0 0 0-105.813 10.24-238.933 58.027-368.64 133.12-238.933 139.947-385.707 317.44-334.507 409.6s283.307 54.613 522.24-85.333c238.933-139.947 385.707-317.44 334.507-409.6-10.24-17.067-27.307-30.72-47.787-37.547-3.413-3.413-10.24 0-13.653 0-3.413 3.413-6.827 6.827-10.24 10.24-3.413 6.827-6.827 13.653-13.653 17.067s-17.067 6.827-27.307 3.413c-10.24-3.413-17.067-6.827-20.48-17.067-3.413-3.413-3.413-6.827-3.413-10.24-3.413-6.827-10.24-13.653-17.067-13.653zM187.733 710.827c-47.787 0-78.507-10.24-92.16-34.133-37.547-61.44 88.747-228.693 320.853-361.813 122.88-71.68 245.76-116.053 341.333-126.293 0 3.413 3.413 6.827 3.413 6.827 10.24 17.067 23.893 27.307 40.96 30.72s37.547 3.413 51.2-6.827c6.827-3.413 17.067-10.24 20.48-20.48 6.827 3.413 13.653 10.24 17.067 17.067 37.547 61.44-88.747 228.693-320.853 361.813-150.187 92.16-293.547 133.12-382.293 133.12zM822.613 93.013c-10.24 0-23.893 3.413-34.133 10.24v0c-17.067 10.24-27.307 23.893-30.72 40.96s-3.413 37.547 6.827 51.2 23.893 27.307 40.96 30.72c17.067 3.413 37.547 3.413 51.2-6.827s27.307-23.893 30.72-40.96 3.413-37.547-6.827-51.2c-10.24-23.893-34.133-34.133-58.027-34.133zM822.613 195.413c-3.413 0-6.827 0-10.24 0-10.24-3.413-17.067-6.827-20.48-17.067-10.24-17.067-3.413-37.547 13.653-47.787v0c17.067-10.24 37.547-3.413 47.787 13.653 3.413 6.827 6.827 17.067 3.413 27.307s-6.827 17.067-17.067 20.48c-3.413 0-10.24 3.413-17.067 3.413zM252.587 168.107c-6.827 0-17.067 6.827-17.067 13.653 0 3.413-3.413 6.827-3.413 10.24-10.24 17.067-30.72 20.48-47.787 13.653-10.24-3.413-13.653-13.653-13.653-17.067s-3.413-6.827-10.24-10.24c-3.413-3.413-10.24-3.413-13.653 0-20.48 10.24-37.547 20.48-47.787 37.547-27.307 47.787-3.413 116.053 61.44 194.56 64.853 75.093 160.427 150.187 273.067 215.040 238.933 139.947 471.040 177.493 522.24 85.333s-95.573-269.653-334.507-409.6c-133.12-75.093-266.24-122.88-368.64-133.12 0 0 0 0 0 0zM201.387 246.613c23.893 0 47.787-13.653 58.027-34.133 0-3.413 3.413-3.413 3.413-6.827 95.573 10.24 218.453 58.027 341.333 126.293 235.52 136.533 358.4 300.373 320.853 361.813s-242.347 37.547-474.453-98.987c-109.227-61.44-201.387-136.533-262.827-208.213-54.613-64.853-78.507-122.88-58.027-153.6 3.413-6.827 10.24-13.653 17.067-17.067 6.827 6.827 13.653 13.653 20.48 20.48 10.24 6.827 20.48 10.24 34.133 10.24zM201.387 110.080c-6.827 0-10.24 0-17.067 3.413-17.067 3.413-30.72 17.067-40.96 30.72-10.24 17.067-10.24 34.133-6.827 51.2s17.067 30.72 30.72 40.96c34.133 20.48 75.093 6.827 92.16-23.893 10.24-17.067 10.24-34.133 6.827-51.2s-17.067-30.72-30.72-40.96c-10.24-6.827-23.893-10.24-34.133-10.24zM201.387 212.48c-6.827 0-10.24 0-17.067-3.413-17.067-10.24-20.48-30.72-13.653-47.787 3.413-6.827 10.24-13.653 20.48-17.067s17.067 0 27.307 3.413v0c6.827 3.413 13.653 10.24 17.067 20.48s0 17.067-3.413 27.307c-6.827 10.24-20.48 17.067-30.72 17.067z" />
<glyph unicode="&#xe907;" glyph-name="Bad-3" d="M1005.978 264.806c-0.239 0.853-0.239 1.741-0.614 2.594l-186.129 406.118v230.4c0 30.925-27.682 56.081-61.713 56.081h-491.008c-34.031 0-61.713-25.156-61.713-56.081v-230.366l-186.163-406.187c-0.375-0.819-0.375-1.707-0.614-2.56-10.923-9.387-18.022-23.142-18.022-38.673v-273.067c0-9.421 7.646-17.067 17.067-17.067h68.267c9.421 0 17.067 7.646 17.067 17.067v85.333h819.2v-85.333c0-9.421 7.646-17.067 17.067-17.067h68.267c9.421 0 17.067 7.646 17.067 17.067v273.067c0 15.531-7.1 29.286-18.022 38.673zM238.899 903.919c0 12.083 12.39 21.948 27.58 21.948h491.008c15.223 0 27.58-9.865 27.58-21.948v-216.986h-72.192c-0.785 0-1.434-0.341-2.185-0.444l-5.359 23.689c-10.342 45.841-55.467 79.155-107.315 79.155h-171.998c-51.849 0-96.973-33.28-107.315-79.155l-5.359-23.689c-0.751 0.102-1.468 0.444-2.253 0.444h-72.192v216.986zM669.355 612.727c-14.131-17.647-37.342-28.194-62.157-28.194h-190.464c-24.781 0-48.026 10.513-62.157 28.194-11.503 14.404-15.735 31.812-11.878 48.981l9.25 40.96c6.861 30.447 37.99 52.531 74.035 52.531h171.964c36.045 0 67.174-22.084 74.035-52.531l9.25-40.96c3.857-17.169-0.375-34.577-11.878-48.981zM232.823 652.8h74.854c-0.819-21.811 6.007-43.52 20.275-61.372 20.855-26.078 53.214-41.028 88.815-41.028h190.464c35.601 0 67.959 14.95 88.849 41.028 14.268 17.852 21.094 39.561 20.275 61.372h74.854l172.1-375.467h-902.588l172.1 375.467zM68.267-29.867h-34.133v68.267h34.133v-68.267zM989.867-29.867h-34.133v68.267h34.133v-68.267zM989.867 72.533h-955.733v153.6c0 9.421 7.68 17.067 17.067 17.067h921.6c9.387 0 17.067-7.646 17.067-17.067v-153.6z" />
<glyph unicode="&#xe908;" glyph-name="Blend-Tool" d="M221.867 379.733h-204.8c-10.24 0-17.067 6.827-17.067 17.067v546.133c0 10.24 6.827 17.067 17.067 17.067h546.133c10.24 0 17.067-6.827 17.067-17.067v-204.8c0-10.24-6.827-17.067-17.067-17.067s-17.067 6.827-17.067 17.067v187.733h-512v-512h187.733c10.24 0 17.067-6.827 17.067-17.067s-6.827-17.067-17.067-17.067zM392.533 140.8c-102.4 0-187.733 85.333-187.733 187.733v238.933c0 102.4 85.333 187.733 187.733 187.733h204.8c98.987 0 187.733-95.573 187.733-204.8 0-10.24-6.827-17.067-17.067-17.067s-17.067 6.827-17.067 17.067c0 81.92-64.853 170.667-153.6 170.667h-204.8c-85.333 0-153.6-68.267-153.6-153.6v-238.933c0-85.333 68.267-153.6 153.6-153.6 10.24 0 17.067-6.827 17.067-17.067s-6.827-17.067-17.067-17.067zM716.8-64c-170.667 0-307.2 136.533-307.2 307.2s136.533 307.2 307.2 307.2 307.2-136.533 307.2-307.2-136.533-307.2-307.2-307.2zM716.8 516.267c-150.187 0-273.067-122.88-273.067-273.067s122.88-273.067 273.067-273.067 273.067 122.88 273.067 273.067-122.88 273.067-273.067 273.067zM426.667 140.8h-34.133c-10.24 0-17.067 6.827-17.067 17.067s6.827 17.067 17.067 17.067h34.133c10.24 0 17.067-6.827 17.067-17.067s-6.827-17.067-17.067-17.067zM768 516.267c-10.24 0-17.067 6.827-17.067 17.067v17.067c0 10.24 6.827 17.067 17.067 17.067s17.067-6.827 17.067-17.067v-17.067c0-10.24-6.827-17.067-17.067-17.067z" />
<glyph unicode="&#xe909;" glyph-name="Block-Chart-2" d="M238.933-64h-204.8c-10.24 0-17.067 6.827-17.067 17.067v512c0 10.24 6.827 17.067 17.067 17.067h204.8c10.24 0 17.067-6.827 17.067-17.067v-512c0-10.24-6.827-17.067-17.067-17.067zM51.2-29.867h170.667v477.867h-170.667v-477.867zM614.4-64h-204.8c-10.24 0-17.067 6.827-17.067 17.067v989.867c0 10.24 6.827 17.067 17.067 17.067h204.8c10.24 0 17.067-6.827 17.067-17.067v-989.867c0-10.24-6.827-17.067-17.067-17.067zM426.667-29.867h170.667v955.733h-170.667v-955.733zM989.867-64h-204.8c-10.24 0-17.067 6.827-17.067 17.067v785.067c0 10.24 6.827 17.067 17.067 17.067h204.8c10.24 0 17.067-6.827 17.067-17.067v-785.067c0-10.24-6.827-17.067-17.067-17.067zM802.133-29.867h170.667v750.933h-170.667v-750.933z" />
<glyph unicode="&#xe90a;" glyph-name="Box-1" d="M1005.875 539.375l-102.4 273.067c-2.321 6.11-7.919 10.377-14.438 10.991l-375.467 34.133c-0.512 0.068-0.956-0.239-1.434-0.239-0.273 0-0.512 0.034-0.785 0-0.307 0-0.58 0.171-0.887 0.137l-1.126-0.102c-0.034 0-0.034 0-0.068 0 0 0 0 0-0.034 0l-374.238-33.997c-6.554-0.58-12.151-4.847-14.473-10.991l-102.4-273.067c-1.98-5.222-1.229-11.093 1.946-15.701 3.209-4.574 8.465-7.339 14.063-7.339h51.2v-358.4c0-7.851 5.325-14.643 12.937-16.555l409.6-102.4c1.365-0.341 2.697-0.512 4.13-0.512s2.765 0.171 4.13 0.546l409.6 102.4c7.612 1.911 12.937 8.738 12.937 16.555v358.366h51.2c5.598 0 10.82 2.765 14.063 7.407 3.174 4.574 3.925 10.445 1.946 15.701zM58.743 550.4l89.975 239.991 338.807 30.788-90.214-270.78h-338.569zM494.933 77.346l-375.467 93.867v345.054h290.133c7.339 0 13.858 4.71 16.213 11.605l69.12 207.36v-657.886zM904.533 171.213l-375.467-93.867v658.022l69.154-207.428c2.321-6.963 8.841-11.674 16.179-11.674h290.133v-345.054zM921.771 550.4c-0.068 0-0.102 0.034-0.171 0.034h-294.912l-90.249 270.711 338.807-30.788 89.975-239.957h-43.452z" />
<glyph unicode="&#xe90b;" glyph-name="Busy-1" d="M256 38.4c-10.24 0-17.067 6.827-17.067 17.067v170.667c0 54.613 23.893 105.813 68.267 143.36l78.507 58.027c6.827 3.413 6.827 10.24 6.827 17.067s-3.413 13.653-10.24 20.48l-78.507 71.68c-40.96 37.547-64.853 88.747-64.853 143.36v160.427c0 10.24 6.827 17.067 17.067 17.067s17.067-6.827 17.067-17.067v-160.427c0-44.373 20.48-88.747 54.613-116.053l78.507-71.68c13.653-10.24 20.48-27.307 20.48-44.373s-6.827-34.133-20.48-44.373l-78.507-58.027c-34.133-34.133-54.613-75.093-54.613-119.467v-170.667c0-10.24-6.827-17.067-17.067-17.067zM768 38.4c-10.24 0-17.067 6.827-17.067 17.067v170.667c0 44.373-20.48 88.747-54.613 116.053l-75.093 58.027c-13.653 13.653-20.48 27.307-20.48 44.373s6.827 34.133 20.48 44.373l78.507 71.68c34.133 30.72 54.613 71.68 54.613 116.053v163.84c-3.413 10.24 3.413 17.067 13.653 17.067s17.067-6.827 17.067-17.067v-160.427c0-54.613-23.893-105.813-68.267-143.36l-78.507-71.68c-6.827-6.827-10.24-13.653-10.24-20.48s3.413-13.653 10.24-20.48l75.093-58.027c44.373-37.547 68.267-88.747 68.267-143.36v-170.667c3.413-6.827-3.413-13.653-13.653-13.653zM512 482.133c-3.413 0-6.827 0-10.24 3.413l-119.467 102.4c-6.827 6.827-6.827 13.653-6.827 20.48 3.413 6.827 10.24 10.24 17.067 10.24h238.933c6.827 0 13.653-3.413 17.067-10.24s0-13.653-3.413-20.48l-119.467-102.4c-6.827-3.413-10.24-3.413-13.653-3.413zM440.32 584.533l71.68-61.44 71.68 61.44h-143.36zM768 38.4c-3.413 0-6.827 0-10.24 3.413l-245.76 197.973-245.76-197.973c-6.827-6.827-17.067-3.413-23.893 3.413s-3.413 17.067 3.413 23.893l256 204.8c6.827 3.413 13.653 3.413 20.48 0l256-204.8c6.827-6.827 10.24-17.067 3.413-23.893-3.413-3.413-10.24-6.827-13.653-6.827zM750.933 823.467h-477.867c-37.547 0-68.267 30.72-68.267 68.267s30.72 68.267 68.267 68.267h477.867c37.547 0 68.267-30.72 68.267-68.267s-30.72-68.267-68.267-68.267zM273.067 925.867c-20.48 0-34.133-13.653-34.133-34.133s13.653-34.133 34.133-34.133h477.867c20.48 0 34.133 13.653 34.133 34.133s-13.653 34.133-34.133 34.133h-477.867zM750.933-64h-477.867c-37.547 0-68.267 30.72-68.267 68.267s30.72 68.267 68.267 68.267h477.867c37.547 0 68.267-30.72 68.267-68.267s-30.72-68.267-68.267-68.267zM273.067 38.4c-20.48 0-34.133-13.653-34.133-34.133s13.653-34.133 34.133-34.133h477.867c20.48 0 34.133 13.653 34.133 34.133s-13.653 34.133-34.133 34.133h-477.867z" />
<glyph unicode="&#xe90c;" glyph-name="Camera-Rear" d="M682.667 72.533h-307.2c-10.24 0-17.067 6.827-17.067 17.067s6.827 17.067 17.067 17.067h307.2c10.24 0 17.067-6.827 17.067-17.067s-6.827-17.067-17.067-17.067zM682.667-64h-341.333c-64.853 0-119.467 54.613-119.467 119.467v785.067c0 64.853 54.613 119.467 119.467 119.467h341.333c64.853 0 119.467-54.613 119.467-119.467v-785.067c0-64.853-54.613-119.467-119.467-119.467zM341.333 925.867c-47.787 0-85.333-37.547-85.333-85.333v-785.067c0-47.787 37.547-85.333 85.333-85.333h341.333c47.787 0 85.333 37.547 85.333 85.333v785.067c0 47.787-37.547 85.333-85.333 85.333h-341.333zM525.653 669.867c-44.373 0-81.92 37.547-81.92 81.92s37.547 81.92 81.92 81.92 81.92-37.547 81.92-81.92-37.547-81.92-81.92-81.92zM525.653 796.16c-27.307 0-47.787-20.48-47.787-47.787s20.48-47.787 47.787-47.787 47.787 20.48 47.787 47.787-23.893 47.787-47.787 47.787zM699.733 823.467c0-18.851-15.282-34.133-34.133-34.133s-34.133 15.282-34.133 34.133c0 18.851 15.282 34.133 34.133 34.133s34.133-15.282 34.133-34.133z" />
<glyph unicode="&#xe90d;" glyph-name="Cash-Pay" d="M1006.933 311.467h-477.867c-10.24 0-17.067 6.827-17.067 17.067s6.827 17.067 17.067 17.067h460.8v409.6h-648.533v-187.733c0-10.24-6.827-17.067-17.067-17.067s-17.067 10.24-17.067 17.067v204.8c0 10.24 6.827 17.067 17.067 17.067h682.667c10.24 0 17.067-6.827 17.067-17.067v-443.733c0-6.827-6.827-17.067-17.067-17.067zM447.147 106.667c-10.24 0-17.067 0-23.893 3.413l-273.067 51.2c-10.24 0-13.653 6.827-13.653 17.067l34.133 187.733c0 0 0 3.413 0 3.413 30.72 58.027 95.573 78.507 146.773 78.507l98.987 98.987c34.133 34.133 68.267 40.96 92.16 17.067l17.067-17.067c13.653-17.067 20.48-47.787 3.413-71.68l-68.267-85.333c-13.653-13.653-17.067-27.307-17.067-44.373 0-23.893 6.827-44.373 23.893-58.027 10.24-10.24 27.307-13.653 44.373-10.24h225.28c0 0 0 0 0 0 6.827 0 13.653-3.413 17.067-13.653 3.413-6.827 0-13.653-6.827-20.48l-153.6-102.4c-23.893-17.067-102.4-34.133-146.773-34.133zM174.080 188.587l256-47.787c27.307-6.827 122.88 13.653 139.947 30.72l109.227 71.68h-167.253c-23.893-3.413-47.787 3.413-68.267 20.48-20.48 20.48-34.133 47.787-34.133 81.92 0 23.893 6.827 40.96 20.48 61.44l68.267 85.333c6.827 13.653 3.413 23.893 0 30.72l-17.067 17.067c-13.653 13.653-44.373-17.067-44.373-17.067l-102.4-102.4c0-3.413-6.827-6.827-10.24-6.827-44.373 0-98.987-17.067-119.467-58.027l-30.72-167.253zM17.067 106.667c-10.24 0-17.067 10.24-17.067 17.067v307.2c0 3.413 3.413 10.24 3.413 13.653s6.827 3.413 13.653 3.413c23.893 0 146.773-3.413 180.907-37.547 6.827-3.413 6.827-10.24 6.827-13.653-10.24-109.227-34.133-221.867-34.133-225.28s-3.413-6.827-6.827-10.24c-3.413-3.413-88.747-54.613-146.773-54.613zM34.133 413.867v-269.653c34.133 6.827 81.92 30.72 105.813 44.373 6.827 23.893 23.893 116.053 30.72 201.387-23.893 13.653-88.747 20.48-136.533 23.893zM873.813 413.867h-37.547c-10.24 0-17.067 6.827-17.067 17.067s6.827 17.067 17.067 17.067h27.307c6.827 10.24 13.653 20.48 23.893 23.893v157.013c-10.24 6.827-20.48 13.653-23.893 23.893h-27.307c-10.24 0-17.067 10.24-17.067 17.067s6.827 17.067 17.067 17.067h37.547c6.827 0 13.653-3.413 17.067-10.24 3.413-10.24 10.24-17.067 20.48-20.48 6.827-3.413 10.24-10.24 10.24-17.067v-177.493c0-6.827-3.413-13.653-10.24-17.067-10.24-3.413-17.067-10.24-20.48-20.48-3.413-3.413-10.24-10.24-17.067-10.24zM423.253 622.080c-6.827 0-13.653 3.413-17.067 10.24-3.413 10.24 0 17.067 10.24 20.48s17.067 10.24 20.48 20.48c3.413 10.24 6.827 13.653 17.067 13.653h37.547c10.24 0 17.067-6.827 17.067-17.067s-10.24-17.067-17.067-17.067h-27.307c-6.827-13.653-20.48-23.893-37.547-30.72 0 0-3.413 0-3.413 0zM648.533 413.867c-27.307 0-54.613 10.24-78.507 23.893-6.827 6.827-10.24 17.067-3.413 23.893s17.067 10.24 23.893 3.413c17.067-13.653 37.547-20.48 58.027-20.48 58.027 0 102.4 44.373 102.4 102.4s-44.373 102.4-102.4 102.4c-34.133 0-68.267-17.067-85.333-47.787-6.827-6.827-17.067-10.24-23.893-3.413s-10.24 17.067-3.413 23.893c23.893 40.96 64.853 64.853 112.64 64.853 75.093 0 136.533-61.44 136.533-136.533s-61.44-136.533-136.533-136.533z" />
<glyph unicode="&#xe90e;" glyph-name="Circle" d="M512 960c-282.317 0-512-229.683-512-512s229.683-512 512-512 512 229.683 512 512-229.683 512-512 512zM512-29.867c-263.509 0-477.867 214.357-477.867 477.867s214.357 477.867 477.867 477.867c263.509 0 477.867-214.357 477.867-477.867s-214.357-477.867-477.867-477.867z" />
<glyph unicode="&#xe90f;" glyph-name="Clean-Code" d="M324.267 652.8c0 9.421-7.646 17.067-17.067 17.067-38.605 0-58.812 4.506-69.837 15.497s-15.497 31.232-15.497 69.837c0 9.421-7.646 17.067-17.067 17.067s-17.067-7.646-17.067-17.067c0-38.605-4.506-58.812-15.497-69.837-10.991-11.059-31.232-15.497-69.837-15.497-9.421 0-17.067-7.646-17.067-17.067s7.646-17.067 17.067-17.067c38.605 0 58.812-4.506 69.837-15.497s15.497-31.266 15.497-69.837c0-9.421 7.646-17.067 17.067-17.067s17.067 7.646 17.067 17.067c0 38.605 4.506 58.812 15.497 69.837s31.232 15.497 69.837 15.497c9.421 0 17.067 7.646 17.067 17.067zM213.231 644.369c-3.174-3.14-5.973-6.588-8.431-10.24-2.458 3.652-5.291 7.066-8.431 10.24s-6.554 5.939-10.206 8.431c3.652 2.458 7.031 5.257 10.206 8.431 3.174 3.14 5.973 6.519 8.431 10.172 2.458-3.652 5.291-7.031 8.431-10.206 3.14-3.14 6.554-5.939 10.206-8.397-3.652-2.492-7.031-5.325-10.206-8.431zM902.997 942.933h-781.961c-57.31 0-103.936-46.797-103.936-104.311v-561.152c0-0.034-0.034-0.102-0.034-0.137s0.034-0.102 0.034-0.171v-49.118c0-57.515 46.626-104.311 103.936-104.311h339.763v-68.267h-168.243c-57.788 0-104.823-38.298-104.823-85.333 0-9.421 7.646-17.067 17.067-17.067h614.4c9.421 0 17.067 7.646 17.067 17.067 0 47.036-47.036 85.333-104.858 85.333h-168.209v68.267h339.797c57.31 0 103.936 46.797 103.936 104.277v610.577c0 57.515-46.626 104.346-103.936 104.346zM731.443 21.333c30.72 0 56.934-14.268 66.662-34.133h-572.211c9.728 19.866 35.942 34.133 66.697 34.133h438.852zM494.933 55.467v68.267h34.133v-68.267h-34.133zM972.8 228.011c0-38.707-31.3-70.178-69.803-70.212h-356.693c-0.068 0-0.102 0.034-0.171 0.034h-68.267c-0.068 0-0.102-0.034-0.171-0.034h-356.693c-38.502 0-69.803 31.505-69.803 70.178v32.29h921.6v-32.256zM972.8 294.4h-921.6v544.188c0 38.741 31.3 70.212 69.803 70.212h781.995c38.502 0 69.803-31.471 69.803-70.144v-544.256zM921.6 772.267c-38.605 0-58.812 4.506-69.837 15.497s-15.497 31.232-15.497 69.837c0 9.421-7.646 17.067-17.067 17.067s-17.067-7.646-17.067-17.067c0-38.605-4.506-58.812-15.497-69.837-10.991-11.059-31.232-15.497-69.837-15.497-9.421 0-17.067-7.646-17.067-17.067s7.646-17.067 17.067-17.067c38.605 0 58.812-4.506 69.837-15.497s15.497-31.266 15.497-69.837c0-9.421 7.646-17.067 17.067-17.067s17.067 7.646 17.067 17.067c0 38.605 4.506 58.812 15.497 69.837s31.232 15.497 69.837 15.497c9.421 0 17.067 7.646 17.067 17.067s-7.646 17.067-17.067 17.067zM827.631 746.769c-3.174-3.14-5.973-6.588-8.431-10.24-2.458 3.652-5.291 7.031-8.431 10.206-3.14 3.209-6.554 5.973-10.206 8.465 3.652 2.458 7.031 5.291 10.206 8.431s5.973 6.519 8.431 10.172c2.458-3.652 5.291-7.031 8.431-10.206 3.14-3.14 6.554-5.939 10.206-8.397-3.652-2.492-7.031-5.325-10.206-8.431zM663.347 661.231c-4.676 8.192-15.121 11.093-23.279 6.349-8.192-4.676-11.025-15.087-6.349-23.279l63.42-111.002-63.42-111.002c-4.676-8.192-1.843-18.603 6.349-23.279 2.697-1.502 5.598-2.219 8.465-2.219 5.905 0 11.674 3.072 14.814 8.602l68.267 119.467c3.004 5.257 3.004 11.674 0 16.93l-68.267 119.433zM326.861 533.333l63.386 111.002c4.676 8.192 1.843 18.603-6.349 23.279-8.226 4.745-18.603 1.843-23.279-6.349l-68.267-119.467c-3.004-5.257-3.004-11.674 0-16.93l68.267-119.467c3.174-5.564 8.909-8.602 14.848-8.602 2.867 0 5.803 0.717 8.465 2.253 8.192 4.676 11.025 15.087 6.349 23.279l-63.42 111.002zM568.115 720.35c-9.079 2.731-18.569-2.389-21.265-11.435l-102.4-341.333c-2.731-9.045 2.389-18.534 11.435-21.265 1.638-0.478 3.311-0.717 4.915-0.717 7.339 0 14.131 4.779 16.35 12.151l102.4 341.333c2.731 9.011-2.389 18.5-11.435 21.265z" />
<glyph unicode="&#xe910;" glyph-name="Clipboard-Write" d="M913.783 755.2c-29.389 0-57.071-11.469-77.756-32.188l-85.094-84.105v184.559c0 37.649-30.618 68.267-68.267 68.267h-105.54c-7.066 19.831-25.839 34.133-48.060 34.133h-94.686c-12.083 20.821-34.441 34.133-58.914 34.133s-46.831-13.312-58.914-34.133h-94.686c-22.221 0-40.994-14.302-48.060-34.133h-105.54c-37.649 0-68.267-30.618-68.267-68.267v-819.2c0-37.649 30.618-68.267 68.267-68.267h614.4c37.649 0 68.267 30.618 68.267 68.267v319.215l240.811 243.644c20.787 20.787 32.256 48.435 32.256 77.961 0 60.723-49.425 110.114-110.217 110.114zM204.8 874.667c0 9.421 7.68 17.067 17.067 17.067h105.472c7.236 0 13.687 4.54 16.077 11.332 4.881 13.619 17.749 22.801 32.017 22.801s27.136-9.182 32.017-22.801c2.423-6.793 8.841-11.332 16.077-11.332h105.54c9.387 0 17.067-7.646 17.067-17.067v-17.067h-341.333v17.067zM716.8 4.267c0-18.807-15.292-34.133-34.133-34.133h-614.4c-18.842 0-34.133 15.326-34.133 34.133v819.2c0 18.807 15.292 34.133 34.133 34.133h102.4v-17.067c0-9.421 7.646-17.067 17.067-17.067h375.467c9.421 0 17.067 7.646 17.067 17.067v17.067h102.4c18.842 0 34.133-15.326 34.133-34.133v-218.317l-302.148-298.633c-0.614-0.58-0.683-1.502-1.161-2.185-1.195-1.502-2.082-3.14-2.697-5.018-0.171-0.58-0.751-0.99-0.853-1.604l-34.133-170.667c-1.126-5.598 0.649-11.401 4.676-15.428 3.209-3.174 7.578-4.949 12.049-4.949 1.092 0 2.219 0.102 3.345 0.307l170.667 34.133c0.444 0.102 0.717 0.512 1.161 0.614 2.628 0.751 5.018 1.946 6.963 3.755 0.205 0.171 0.478 0.171 0.683 0.375l141.449 143.121v-284.706zM440.183 274.978c15.223-3.686 40.516-13.21 65.434-38.161 24.951-24.951 34.441-50.278 38.127-65.434l-129.434-25.907 25.873 129.502zM573.167 192.205c-6.554 19.354-19.183 44.51-43.383 68.745-24.235 24.235-49.425 36.864-68.779 43.418l334.643 330.752 108.271-108.271-330.752-334.643zM967.543 591.223l-39.629-40.107-107.998 107.998 40.175 39.697c14.131 14.165 33.69 22.255 53.794 22.255 41.916 0 75.981-34.099 75.981-76.049 0-20.309-7.885-39.39-22.323-53.794z" />
<glyph unicode="&#xe911;" glyph-name="Clock-1" d="M512-46.933c-273.067 0-494.933 221.867-494.933 494.933s221.867 494.933 494.933 494.933 494.933-221.867 494.933-494.933-221.867-494.933-494.933-494.933zM512 908.8c-252.587 0-460.8-208.213-460.8-460.8s208.213-460.8 460.8-460.8 460.8 208.213 460.8 460.8-208.213 460.8-460.8 460.8zM750.933 430.933h-238.933c-10.24 0-17.067 6.827-17.067 17.067v341.333c0 10.24 6.827 17.067 17.067 17.067s17.067-6.827 17.067-17.067v-324.267h221.867c10.24 0 17.067-6.827 17.067-17.067s-6.827-17.067-17.067-17.067z" />
<glyph unicode="&#xe912;" glyph-name="Cloud-Database" d="M426.667 174.933c21.231 0 41.882 0.853 62.259 2.15 9.421 0.58 16.589 8.67 15.974 18.091-0.58 9.387-7.919 16.418-18.091 15.974-19.661-1.263-39.595-2.082-60.143-2.082-234.803 0-392.533 79.428-392.533 153.6v130.014c64.512-67.004 214.050-112.947 392.533-112.947s328.055 45.943 392.533 112.947v-165.786c0-9.421 7.646-17.067 17.067-17.067s17.067 7.612 17.067 17.067v445.372c0 105.267-187.392 187.733-426.667 187.733s-426.667-82.466-426.667-187.733v-614.4c0-100.966 172.544-181.453 401.306-187.187h0.444c9.216 0 16.828 7.339 17.033 16.623 0.239 9.455-7.202 17.271-16.623 17.51-202.923 5.086-368.026 73.728-368.026 153.054v130.014c64.512-67.004 214.050-112.947 392.533-112.947zM426.667 925.867c234.257 0 391.748-79.565 392.465-154.112-0.717-74.035-158.174-153.088-392.465-153.088s-391.748 79.053-392.465 153.088c0.717 74.547 158.208 154.112 392.465 154.112zM34.133 696.047c64.478-67.379 214.016-113.562 392.533-113.562s328.055 46.182 392.533 113.562v-128.58c0-74.172-157.73-153.6-392.533-153.6s-392.533 79.428-392.533 153.6v128.58zM880.879 226.133c-4.506 0-8.943-0.273-13.312-0.785-34.031 53.419-92.262 86.118-154.726 86.118-96.836 0-176.572-75.844-184.457-172.032-47.923-7.953-84.651-50.244-84.651-101.035 0-56.457 45.363-102.4 101.103-102.4h336.077c78.916 0 143.087 65.092 143.087 145.067s-64.171 145.067-143.121 145.067zM880.913-29.867h-336.077c-36.932 0-66.97 30.618-66.97 68.267s30.037 68.267 66.97 68.267c9.421 0 17.067 7.646 17.067 17.067 0 84.685 67.755 153.6 150.972 153.6 53.931 0 104.141-30.174 131.004-78.814 3.482-6.383 10.752-9.865 17.954-8.533 6.212 1.161 12.561 2.014 19.081 2.014 60.075 0 108.954-49.766 108.954-110.933s-48.811-110.933-108.954-110.933z" />
<glyph unicode="&#xe913;" glyph-name="Cloud-Server-1" d="M750.933 379.733h-682.667c-37.649 0-68.267-30.618-68.267-68.267v-102.4c0-20.48 9.25-38.673 23.586-51.2-14.336-12.527-23.586-30.72-23.586-51.2v-102.4c0-37.649 30.618-68.267 68.267-68.267h682.667c37.649 0 68.267 30.618 68.267 68.267v102.4c0 20.48-9.25 38.673-23.586 51.2 14.302 12.493 23.586 30.686 23.586 51.2v102.4c0 37.649-30.618 68.267-68.267 68.267zM785.067 4.267c0-18.807-15.326-34.133-34.133-34.133h-682.667c-18.807 0-34.133 15.326-34.133 34.133v102.4c0 18.807 15.326 34.133 34.133 34.133h682.667c18.807 0 34.133-15.326 34.133-34.133v-102.4zM785.067 209.067c0-18.807-15.326-34.133-34.133-34.133h-682.667c-18.807 0-34.133 15.326-34.133 34.133v102.4c0 18.807 15.326 34.133 34.133 34.133h682.667c18.807 0 34.133-15.326 34.133-34.133v-102.4zM802.85 702.123c-28.365 148.070-160.085 257.877-312.354 257.877-175.479 0-318.327-142.438-318.327-317.611 0-8.499 0.444-17.169 1.331-26.522-97.007-8.021-173.466-89.361-173.466-188.177 0-2.355 0.205-4.642 0.751-9.353 0.546-9.421 8.977-16.657 18.022-16.043 9.421 0.546 16.623 8.636 16.043 18.022l-0.717 7.407c0 85.299 69.564 154.692 154.317 154.692 0.751-0.137 3.243-0.375 3.994-0.375 3.311 0.444 9.728 2.082 13.039 5.803 3.311 3.755 4.779 8.772 4.062 13.722-2.219 15.497-3.277 28.467-3.277 40.823 0.034 156.262 127.522 283.477 284.228 283.477 140.425 0 261.222-104.619 280.986-243.302 1.229-8.431 11.196-14.302 19.763-14.302 109.022-0.956 198.656-88.474 198.656-197.632 0-81.749-49.357-153.941-125.713-183.876-8.772-3.447-13.107-13.346-9.66-22.118 2.628-6.724 9.045-10.82 15.872-10.82 2.082 0 4.198 0.375 6.281 1.195 89.463 35.089 147.319 119.74 147.319 215.654 0 124.075-98.236 225.69-221.15 231.458zM119.467 89.6c-18.842 0-34.133-15.292-34.133-34.133s15.292-34.133 34.133-34.133 34.133 15.292 34.133 34.133-15.292 34.133-34.133 34.133zM699.733 72.533h-204.8c-9.421 0-17.067-7.646-17.067-17.067s7.646-17.067 17.067-17.067h204.8c9.421 0 17.067 7.646 17.067 17.067s-7.646 17.067-17.067 17.067zM699.733 277.333h-204.8c-9.421 0-17.067-7.646-17.067-17.067s7.646-17.067 17.067-17.067h204.8c9.421 0 17.067 7.646 17.067 17.067s-7.646 17.067-17.067 17.067zM119.467 294.4c-18.842 0-34.133-15.292-34.133-34.133s15.292-34.133 34.133-34.133 34.133 15.292 34.133 34.133-15.292 34.133-34.133 34.133z" />
<glyph unicode="&#xe914;" glyph-name="Compas-Rose" d="M563.2 482.133c-6.827 0-17.067 6.827-17.067 13.653l-34.133 286.72-34.133-286.72c0-10.24-10.24-17.067-20.48-13.653-10.24 0-17.067 10.24-13.653 20.48l51.2 426.667c0 10.24 6.827 13.653 17.067 13.653s17.067-6.827 17.067-13.653l51.2-426.667c0-10.24-6.827-20.48-17.067-20.48 0 0 0 0 0 0zM512-46.933c-10.24 0-17.067 6.827-17.067 13.653l-51.2 426.667c0 10.24 6.827 17.067 13.653 20.48 10.24 0 17.067-6.827 20.48-13.653l34.133-286.72 34.133 286.72c0 10.24 10.24 17.067 20.48 13.653 10.24 0 17.067-10.24 13.653-20.48l-51.2-426.667c0-6.827-6.827-13.653-17.067-13.653zM563.2 379.733c-6.827 0-17.067 6.827-17.067 13.653 0 10.24 6.827 17.067 13.653 20.48l286.72 34.133-286.72 34.133c-10.24 0-17.067 10.24-13.653 20.48s10.24 17.067 20.48 13.653l426.667-51.2c10.24 0 13.653-6.827 13.653-17.067s-6.827-17.067-13.653-17.067l-430.080-51.2c0 0 0 0 0 0zM460.8 379.733c0 0 0 0 0 0l-430.080 51.2c-10.24 0-13.653 6.827-13.653 17.067s6.827 17.067 13.653 17.067l426.667 51.2c10.24 0 17.067-6.827 20.48-13.653 0-10.24-6.827-17.067-13.653-20.48l-286.72-34.133 286.72-34.133c10.24 0 17.067-10.24 13.653-20.48 0-6.827-10.24-13.653-17.067-13.653zM460.8 482.133c-3.413 0-10.24 0-13.653 3.413l-204.8 204.8c-3.413 6.827-3.413 20.48 0 27.307s17.067 6.827 23.893 0l204.8-204.8c6.827-6.827 6.827-17.067 0-23.893 0-6.827-6.827-6.827-10.24-6.827zM566.613 482.133c-3.413 0-10.24 0-10.24 3.413-6.827 6.827-6.827 17.067 0 23.893l201.387 204.8c6.827 6.827 17.067 6.827 23.893 0s6.827-17.067 0-23.893l-201.387-204.8c-3.413 0-6.827-3.413-13.653-3.413zM768 174.933c-3.413 0-10.24 0-13.653 3.413l-204.8 204.8c-6.827 6.827-6.827 17.067 0 23.893s17.067 6.827 23.893 0l204.8-204.8c6.827-6.827 6.827-17.067 0-23.893 0-3.413-6.827-3.413-10.24-3.413zM256 192c-3.413 0-10.24 0-13.653 3.413-6.827 6.827-6.827 17.067 0 23.893l187.733 187.733c6.827 6.827 17.067 6.827 23.893 0s6.827-17.067 0-23.893l-187.733-187.733c0-3.413-6.827-3.413-10.24-3.413zM512 362.667c-47.787 0-85.333 37.547-85.333 85.333s37.547 85.333 85.333 85.333 85.333-37.547 85.333-85.333-37.547-85.333-85.333-85.333zM512 499.2c-27.307 0-51.2-23.893-51.2-51.2s23.893-51.2 51.2-51.2 51.2 23.893 51.2 51.2-23.893 51.2-51.2 51.2zM512 55.467c-215.040 0-392.533 177.493-392.533 392.533s177.493 392.533 392.533 392.533 392.533-177.493 392.533-392.533-177.493-392.533-392.533-392.533zM512 806.4c-197.973 0-358.4-160.427-358.4-358.4s160.427-358.4 358.4-358.4 358.4 160.427 358.4 358.4-160.427 358.4-358.4 358.4z" />
<glyph unicode="&#xe915;" glyph-name="Compass-2" d="M546.133 328.533c-3.413 0-10.24 3.413-13.653 3.413l-85.333 85.333c-3.413 6.827-3.413 10.24-3.413 13.653s3.413 10.24 6.827 13.653l256 170.667c6.827 3.413 17.067 3.413 20.48-3.413 6.827-6.827 6.827-13.653 3.413-20.48l-170.667-256c-3.413-3.413-6.827-6.827-13.653-6.827 0 0 0 0 0 0zM488.107 427.52l54.613-54.613 112.64 167.253-167.253-112.64zM307.2 174.933c-3.413 0-10.24 3.413-13.653 3.413-6.827 6.827-6.827 13.653-3.413 20.48l153.6 238.933c3.413 6.827 17.067 10.24 23.893 6.827s10.24-17.067 6.827-23.893l-112.64-174.080 174.080 112.64c6.827 6.827 17.067 3.413 23.893-6.827 3.413-6.827 3.413-17.067-6.827-23.893l-238.933-153.6c0 0-3.413 0-6.827 0zM512 721.067c-10.24 0-17.067 6.827-17.067 17.067v102.4c0 10.24 6.827 17.067 17.067 17.067s17.067-6.827 17.067-17.067v-102.4c0-10.24-6.827-17.067-17.067-17.067zM512-64c-10.24 0-17.067 6.827-17.067 17.067v102.4c0 10.24 6.827 17.067 17.067 17.067s17.067-6.827 17.067-17.067v-102.4c0-10.24-6.827-17.067-17.067-17.067zM170.667 379.733h-102.4c-10.24 0-17.067 6.827-17.067 17.067s6.827 17.067 17.067 17.067h102.4c10.24 0 17.067-6.827 17.067-17.067s-6.827-17.067-17.067-17.067zM955.733 379.733h-102.4c-10.24 0-17.067 6.827-17.067 17.067s6.827 17.067 17.067 17.067h102.4c10.24 0 17.067-6.827 17.067-17.067s-6.827-17.067-17.067-17.067zM512-64c-252.587 0-460.8 208.213-460.8 460.8s208.213 460.8 460.8 460.8 460.8-208.213 460.8-460.8-208.213-460.8-460.8-460.8zM512 823.467c-235.52 0-426.667-191.147-426.667-426.667s191.147-426.667 426.667-426.667 426.667 191.147 426.667 426.667-191.147 426.667-426.667 426.667zM614.4 823.467c-10.24 0-17.067 6.827-17.067 17.067 0 47.787-37.547 85.333-85.333 85.333s-85.333-37.547-85.333-85.333c0-10.24-6.827-17.067-17.067-17.067s-17.067 6.827-17.067 17.067c0 64.853 54.613 119.467 119.467 119.467s119.467-54.613 119.467-119.467c0-10.24-6.827-17.067-17.067-17.067z" />
<glyph unicode="&#xe916;" glyph-name="Computer-Network-2" d="M1006.933 174.933h-785.067c-10.24 0-17.067 6.827-17.067 17.067s6.827 17.067 17.067 17.067h785.067c10.24 0 17.067-6.827 17.067-17.067s-6.827-17.067-17.067-17.067zM631.467-12.8c-10.24 0-17.067 6.827-17.067 17.067v85.333c0 10.24 6.827 17.067 17.067 17.067s17.067-6.827 17.067-17.067v-85.333c0-10.24-6.827-17.067-17.067-17.067zM802.133-29.867h-341.333c-10.24 0-17.067 6.827-17.067 17.067s6.827 17.067 17.067 17.067h341.333c10.24 0 17.067-6.827 17.067-17.067s-6.827-17.067-17.067-17.067zM938.667 72.533h-648.533c-47.787 0-85.333 37.547-85.333 85.333v375.467c0 47.787 37.547 85.333 85.333 85.333h648.533c47.787 0 85.333-37.547 85.333-85.333v-375.467c0-47.787-37.547-85.333-85.333-85.333zM290.133 584.533c-27.307 0-51.2-23.893-51.2-51.2v-375.467c0-27.307 23.893-51.2 51.2-51.2h648.533c27.307 0 51.2 23.893 51.2 51.2v375.467c0 27.307-23.893 51.2-51.2 51.2h-648.533zM221.867 482.133h-204.8c-10.24 0-17.067 6.827-17.067 17.067s6.827 17.067 17.067 17.067h204.8c10.24 0 17.067-6.827 17.067-17.067s-6.827-17.067-17.067-17.067zM221.867 379.733h-136.533c-47.787 0-85.333 37.547-85.333 85.333v375.467c0 47.787 37.547 85.333 85.333 85.333h648.533c47.787 0 85.333-37.547 85.333-85.333v-238.933c0-10.24-6.827-17.067-17.067-17.067h-512c-27.307 0-51.2-23.893-51.2-51.2v-136.533c0-10.24-6.827-17.067-17.067-17.067zM85.333 891.733c-27.307 0-51.2-23.893-51.2-51.2v-375.467c0-27.307 23.893-51.2 51.2-51.2h119.467v119.467c0 47.787 37.547 85.333 85.333 85.333h494.933v221.867c0 27.307-23.893 51.2-51.2 51.2h-648.533z" />
<glyph unicode="&#xe917;" glyph-name="Computer-Sync" d="M384.273 345.6h-324.813c-32.802 0-59.46-26.692-59.46-59.46v-222.413c0-32.768 26.658-59.46 59.46-59.46h145.34v-34.133h-51.2c-9.421 0-17.067-7.646-17.067-17.067s7.646-17.067 17.067-17.067h136.533c9.421 0 17.067 7.646 17.067 17.067s-7.646 17.067-17.067 17.067h-51.2v34.133h145.34c32.802 0 59.46 26.692 59.46 59.46v222.413c0 32.768-26.658 59.46-59.46 59.46zM409.6 63.727c0-13.961-11.366-25.327-25.327-25.327h-324.813c-13.961 0-25.327 11.366-25.327 25.327v8.806h375.467v-8.806zM409.6 106.667h-375.467v179.473c0 13.961 11.366 25.327 25.327 25.327h324.813c13.961 0 25.327-11.366 25.327-25.327v-179.473zM870.4 482.133c-9.421 0-17.067-7.646-17.067-17.067v-238.933c0-28.228-22.972-51.2-51.2-51.2h-197.734l4.949 4.847c6.656 6.656 6.656 17.476 0 24.132s-17.476 6.656-24.132 0l-34.031-34.031c-0.341-0.341-0.683-0.717-1.024-1.092-2.219-2.628-3.55-5.769-3.925-9.011-0.137-0.99-0.171-2.014-0.102-3.004 0.239-3.959 1.877-7.885 4.881-10.957 0.034 0 0.034 0 0.034 0s0 0 0.034 0c0-0.034 0.034-0.034 0.034-0.034l34.133-34.133c3.345-3.311 7.714-4.983 12.083-4.983s8.738 1.638 12.049 4.983 4.983 7.714 4.983 12.083-1.638 8.738-4.983 12.083l-4.983 4.983h197.734c47.070 0 85.333 38.298 85.333 85.333v238.933c0 9.421-7.646 17.067-17.067 17.067zM964.54 960h-324.813c-32.802 0-59.46-26.692-59.46-59.46v-222.413c0-32.768 26.658-59.46 59.46-59.46h145.34v-34.133h-51.2c-9.421 0-17.067-7.646-17.067-17.067s7.646-17.067 17.067-17.067h136.533c9.421 0 17.067 7.646 17.067 17.067s-7.646 17.067-17.067 17.067h-51.2v34.133h145.34c32.802 0 59.46 26.692 59.46 59.46v222.413c0 32.768-26.658 59.46-59.46 59.46zM989.867 678.127c0-13.961-11.366-25.327-25.327-25.327h-324.813c-13.961 0-25.327 11.366-25.327 25.327v8.806h375.467v-8.806zM989.867 721.067h-375.467v179.473c0 13.961 11.366 25.327 25.327 25.327h324.813c13.961 0 25.327-11.366 25.327-25.327v-179.473zM472.951 750.182c0 0 0 0 0 0-0.034 0.034-0.068 0.034-0.068 0.034l-34.133 34.133c-6.656 6.656-17.476 6.656-24.132 0-3.311-3.345-4.983-7.714-4.983-12.083s1.638-8.738 4.983-12.083l4.983-4.983h-197.734c-47.070 0-85.333-38.298-85.333-85.333v-238.933c0-9.421 7.646-17.067 17.067-17.067s17.067 7.646 17.067 17.203v238.933c0 28.228 22.972 51.2 51.2 51.2h197.769l-4.983-4.983c-6.656-6.656-6.656-17.476 0-24.132s17.476-6.656 24.132 0l34.031 34.031c0.341 0.341 0.683 0.717 1.024 1.092 2.219 2.628 3.55 5.769 3.925 9.011 0.137 0.99 0.171 2.014 0.102 3.004-0.239 3.959-1.877 7.885-4.881 10.957-0.034 0-0.034 0-0.034 0z" />
<glyph unicode="&#xe918;" glyph-name="Cube-3" d="M1023.249 946.586c-0.205 0.922-0.205 1.911-0.58 2.799-1.741 4.233-5.086 7.578-9.318 9.318-0.887 0.375-1.843 0.341-2.799 0.58-1.161 0.239-2.321 0.717-3.618 0.717h-682.667c-0.99 0-1.877-0.41-2.833-0.58-1.229-0.205-2.492-0.239-3.652-0.717v0c-2.116-0.887-3.994-2.116-5.598-3.721 0 0 0 0 0 0l-307.2-307.2c-0.137-0.137-0.171-0.341-0.341-0.478-1.365-1.468-2.56-3.14-3.345-5.018-0.853-2.15-1.297-4.369-1.297-6.622v-682.564c0-2.253 0.444-4.506 1.331-6.588 0.478-1.126 1.297-1.98 1.98-2.97 0.58-0.853 0.922-1.775 1.673-2.526 0.58-0.546 1.297-0.785 1.911-1.263 1.161-0.887 2.287-1.843 3.652-2.389 2.082-0.922 4.301-1.365 6.519-1.365h682.667c2.219 0 4.437 0.444 6.519 1.331 1.911 0.785 3.55 1.98 5.052 3.345 0.137 0.137 0.341 0.171 0.478 0.307l307.2 307.2c0 0 0 0 0 0 1.57 1.57 2.833 3.482 3.686 5.564v0c0.478 1.195 0.546 2.423 0.751 3.686 0.171 0.956 0.58 1.843 0.58 2.833v682.667c0 1.297-0.444 2.458-0.751 3.652zM307.2 901.734v-248.934h-248.934l248.934 248.934zM34.133 618.667h273.067v-351.334l-273.067-273.067v624.401zM682.667-29.867h-624.401l273.067 273.067h351.334v-273.067zM682.667 277.333h-341.333v341.333h341.333v-341.333zM692.668 652.8h-351.334v273.067h624.401l-273.067-273.067zM716.8-5.734v248.934h248.934l-248.934-248.934zM989.867 277.333h-273.067v351.334l273.067 273.067v-624.401z" />
<glyph unicode="&#xe919;" glyph-name="Cup-2" d="M645.598 516.881c1.058-0.205 2.048-0.614 3.174-0.614 97.314 0 238.694 126.054 238.694 323.721 0 9.421-7.646 17.067-17.067 17.067h-123.29c1.809 22.016 2.935 44.919 3.311 68.813h17.579c9.421 0 17.067 7.646 17.067 17.067s-7.646 17.067-17.067 17.067h-33.963c-0.068 0-0.102 0-0.171 0h-443.733c-0.068 0-0.102 0-0.171 0h-33.963c-9.421 0-17.067-7.646-17.067-17.067s7.646-17.067 17.067-17.067h17.579c0.375-23.689 1.502-46.421 3.277-68.267h-123.255c-9.421 0-17.067-7.646-17.067-17.067 0-197.632 141.687-323.721 239.172-323.721 0.956 0 1.809 0.41 2.731 0.546 26.453-44.032 51.098-72.329 65.536-87.177v-53.521c-19.934-7.031-34.372-25.839-34.372-48.128v-51.2h-119.467c-9.421 0-17.067-7.646-17.067-17.067s7.646-17.067 17.067-17.067h17.067v-273.067h-17.067c-9.421 0-17.067-7.646-17.067-17.067s7.646-17.067 17.067-17.067h443.733c9.421 0 17.067 7.646 17.067 17.067s-7.646 17.067-17.067 17.067h-17.067v273.067h17.067c9.421 0 17.067 7.646 17.067 17.067s-7.646 17.067-17.067 17.067h-119.467v51.2c0 22.118-14.199 40.858-33.894 47.991v53.692c14.336 14.78 38.81 42.906 65.092 86.665zM744.004 822.921h108.919c-7.168-153.634-110.285-257.946-188.041-271.053 33.314 64.512 65.468 153.771 79.121 271.053zM171.076 823.467h108.885c13.585-117.111 45.705-206.336 79.019-270.916-77.824 13.483-180.702 117.623-187.904 270.916zM443.733 328.533c0 9.318 7.509 16.828 16.759 16.998 0.205 0 0.341-0.102 0.546-0.102h102.4c0.102 0 0.205 0.068 0.307 0.068 9.114-0.341 16.521-7.748 16.521-16.964v-51.2h-136.533v51.2zM478.106 379.733v33.963h68.267v-33.963h-68.267zM682.667 243.2v-273.067h-341.333v273.067h341.333zM549.82 447.829h-75.23c-26.283 25.771-162.338 173.773-167.253 478.037h409.327c-4.949-304.196-140.561-452.198-166.844-478.037zM426.667 72.533h170.667c9.421 0 17.067 7.646 17.067 17.067v102.4c0 9.421-7.646 17.067-17.067 17.067h-170.667c-9.421 0-17.067-7.646-17.067-17.067v-102.4c0-9.421 7.646-17.067 17.067-17.067zM443.733 174.933h136.533v-68.267h-136.533v68.267zM377.754 875.895c-0.649 9.421-9.182 16.384-18.193 15.838-9.455-0.683-16.521-8.841-15.872-18.227 15.462-222.72 102.946-343.962 139.844-385.775 3.379-3.823 8.055-5.769 12.8-5.769 4.028 0 8.021 1.399 11.298 4.301 7.066 6.246 7.748 17.033 1.502 24.098-34.611 39.151-116.634 153.259-131.379 365.534z" />
<glyph unicode="&#xe91a;" glyph-name="Delivery" d="M512 4.267h68.267c9.421 0 17.067 7.646 17.067 17.067s-7.646 17.067-17.067 17.067h-68.267c-9.421 0-17.067-7.646-17.067-17.067s7.646-17.067 17.067-17.067zM870.366 602.249c0 0.137 0 0.273-0.034 0.41-0.546 197.12-161.041 357.342-358.332 357.342-197.325 0-357.854-160.29-358.366-357.478 0-0.068 0-0.102 0-0.171 0-0.273-0.034-0.512-0.034-0.751 0-0.922 0.375-1.707 0.512-2.56 0.171-1.195 0.273-2.355 0.717-3.516 0.478-1.229 1.263-2.253 1.98-3.345 0.444-0.649 0.649-1.434 1.229-2.048l315.392-346.931h-97.963c-9.421 0-17.067-7.646-17.067-17.067v-273.067c0-9.421 7.646-17.067 17.067-17.067h273.067c9.421 0 17.067 7.646 17.067 17.067v273.067c0 9.421-7.646 17.067-17.067 17.067h-97.929l315.392 346.931c0.649 0.717 0.922 1.638 1.434 2.423 0.614 0.956 1.297 1.843 1.707 2.901 0.512 1.297 0.614 2.628 0.785 3.959 0.137 0.751 0.478 1.399 0.478 2.185 0 0.205-0.034 0.444-0.034 0.649zM512 925.867c154.18 0 283.546-108.169 316.279-252.553-35.669 28.297-89.737 47.753-145.613 47.753-71.339 0-139.81-31.778-170.667-73.114-30.857 41.37-99.328 73.114-170.667 73.114-55.876 0-109.943-19.456-145.613-47.753 32.734 144.418 162.099 252.553 316.279 252.553zM188.894 606.959c6.007 34.099 67.789 79.974 152.439 79.974 89.088 0 153.6-50.961 153.6-85.333v-331.264l-306.039 336.623zM631.467 209.067v-238.933h-238.933v238.933h238.933zM529.067 270.302v331.298c0 34.372 64.512 85.333 153.6 85.333 84.685 0 146.466-45.909 152.439-79.974l-306.039-336.657z" />
<glyph unicode="&#xe91b;" glyph-name="Diamond" d="M512 17.92c-3.413 0-10.24 3.413-13.653 6.827l-488.107 552.96c-3.413 6.827-6.827 13.653-3.413 20.48l136.533 273.067c3.413 6.827 10.24 10.24 13.653 10.24h716.8c6.827 0 13.653-3.413 17.067-10.24l129.707-273.067c3.413-6.827 3.413-13.653-3.413-17.067l-491.52-559.787c-3.413-3.413-10.24-3.413-13.653-3.413zM40.96 591.36l471.040-532.48 471.040 532.48-119.467 252.587h-696.32l-126.293-252.587zM1003.52 570.88h-983.040c-10.24 0-17.067 6.827-17.067 17.067s6.827 17.067 17.067 17.067h983.040c10.24 0 17.067-6.827 17.067-17.067s-6.827-17.067-17.067-17.067zM703.147 570.88c-6.827 0-10.24 3.413-13.653 6.827l-177.493 238.933-177.493-238.933c-3.413-3.413-6.827-6.827-13.653-6.827s-10.24 3.413-13.653 6.827l-170.667 256c-6.827 10.24-3.413 20.48 3.413 23.893 6.827 6.827 17.067 3.413 23.893-3.413l157.013-235.52 177.493 235.52c6.827 10.24 20.48 10.24 27.307 0l177.493-235.52 157.013 235.52c6.827 6.827 17.067 10.24 23.893 3.413s10.24-17.067 3.413-23.893l-170.667-256c0-3.413-6.827-6.827-13.653-6.827 0 0 0 0 0 0zM512 17.92c-6.827 0-13.653 3.413-17.067 10.24l-191.147 556.373c-3.413 10.24 0 17.067 10.24 20.48s17.067 0 20.48-10.24l177.493-508.587 177.493 508.587c3.413 10.24 13.653 13.653 20.48 10.24 10.24-3.413 13.653-13.653 10.24-20.48l-191.147-556.373c-3.413-6.827-10.24-10.24-17.067-10.24z" />
<glyph unicode="&#xe91c;" glyph-name="Digital-Design" d="M921.6 209.067h-819.2c-58.027 0-102.4 44.373-102.4 102.4v546.133c0 58.027 44.373 102.4 102.4 102.4h819.2c58.027 0 102.4-44.373 102.4-102.4v-529.067c0-54.613-44.373-119.467-102.4-119.467zM102.4 925.867c-37.547 0-68.267-30.72-68.267-68.267v-546.133c0-37.547 30.72-68.267 68.267-68.267h819.2c37.547 0 68.267 47.787 68.267 85.333v529.067c0 37.547-30.72 68.267-68.267 68.267h-819.2zM836.267-64h-614.4c-10.24 0-17.067 6.827-17.067 17.067v51.2c0 58.027 44.373 102.4 102.4 102.4h443.733c58.027 0 102.4-44.373 102.4-102.4v-51.2c0-10.24-6.827-17.067-17.067-17.067zM238.933-29.867h580.267v34.133c0 37.547-30.72 68.267-68.267 68.267h-443.733c-37.547 0-68.267-30.72-68.267-68.267v-34.133zM1006.933 345.6h-989.867c-10.24 0-17.067 6.827-17.067 17.067s6.827 17.067 17.067 17.067h989.867c10.24 0 17.067-6.827 17.067-17.067s-6.827-17.067-17.067-17.067zM836.267 277.333c-10.24 0-17.067 6.827-17.067 17.067s6.827 17.067 17.067 17.067v0c10.24 0 17.067-6.827 17.067-17.067s-6.827-17.067-17.067-17.067zM1006.933 823.467h-989.867c-10.24 0-17.067 6.827-17.067 17.067s6.827 17.067 17.067 17.067h989.867c10.24 0 17.067-6.827 17.067-17.067s-6.827-17.067-17.067-17.067zM665.6 72.533h-273.067c-10.24 0-17.067 6.827-17.067 17.067v136.533c0 10.24 6.827 17.067 17.067 17.067h273.067c10.24 0 17.067-6.827 17.067-17.067v-136.533c0-10.24-6.827-17.067-17.067-17.067zM409.6 106.667h238.933v102.4h-238.933v-102.4zM631.467 294.4c0-18.851-15.282-34.133-34.133-34.133s-34.133 15.282-34.133 34.133c0 18.851 15.282 34.133 34.133 34.133s34.133-15.282 34.133-34.133zM358.4 448h-102.4c-10.24 0-17.067 6.827-17.067 17.067v102.4c0 10.24 6.827 17.067 17.067 17.067h102.4c10.24 0 17.067-6.827 17.067-17.067v-102.4c0-10.24-6.827-17.067-17.067-17.067zM273.067 482.133h68.267v68.267h-68.267v-68.267zM768 652.8h-102.4c-10.24 0-17.067 6.827-17.067 17.067v102.4c0 10.24 6.827 17.067 17.067 17.067h102.4c10.24 0 17.067-6.827 17.067-17.067v-102.4c0-10.24-6.827-17.067-17.067-17.067zM682.667 686.933h68.267v68.267h-68.267v-68.267zM358.4 516.267c-6.827 0-10.24 3.413-13.653 10.24s0 17.067 6.827 23.893l307.2 170.667c6.827 3.413 17.067 0 23.893-6.827s0-17.067-6.827-23.893l-307.2-170.667c-3.413-3.413-6.827-3.413-10.24-3.413z" />
<glyph unicode="&#xe91d;" glyph-name="Disabled-man" d="M613.615 195.994c-9.318 1.092-17.852-5.598-18.944-14.95-14.029-120.252-116.053-210.91-237.295-210.91-131.721 0-238.933 107.179-238.933 238.933 0 113.015 80.247 211.456 190.771 234.052 9.25 1.877 15.189 10.889 13.312 20.139-1.911 9.25-10.889 15.121-20.173 13.312-126.327-25.839-218.044-138.342-218.044-267.503 0-150.562 122.505-273.067 273.067-273.067 138.581 0 255.181 103.663 271.223 241.050 1.092 9.387-5.632 17.852-14.985 18.944zM924.126 212.617c-20.787 20.753-54.613 20.753-75.332 0l-30.583-30.618-138.615 138.615c-16.145 16.111-37.547 24.986-60.348 24.986h-142.404c-9.387 0-17.067 7.646-17.067 17.067v163.601l73.25-73.284c3.925-3.925 9.489-5.666 14.882-4.779l101.717 16.964c16.35 2.048 31.3 10.889 40.926 24.269 9.66 13.38 13.38 30.379 10.138 46.592-6.349 32.017-39.185 47.957-66.697 44.032l-66.048-11.366-99.089 99.123c-12.288 12.322-28.672 19.115-46.285 19.115-35.977 0-65.195-29.252-65.195-65.195v-293.205c0-47.036 38.263-85.333 85.333-85.333h163.601l175.65-175.684c9.967-9.967 23.108-14.95 36.215-14.95s26.249 4.983 36.215 14.985l69.734 69.734c20.719 20.753 20.753 54.545 0 75.332zM899.994 161.417l-69.734-69.734c-6.656-6.656-17.476-6.656-24.132 0l-180.668 180.668c-3.209 3.174-7.543 4.983-12.083 4.983h-170.667c-28.228 0-51.2 22.972-51.2 51.2v293.205c0 17.135 13.926 31.061 31.266 31.061 8.294 0 16.111-3.243 21.982-9.079l105.37-105.37c3.925-3.925 9.489-5.666 14.95-4.745l74.172 12.8c9.83 1.263 25.361-3.925 27.989-16.998 1.399-7.031-0.137-14.131-4.335-19.934s-10.377-9.489-18.193-10.479l-93.73-15.633-96.188 96.188c-4.881 4.847-12.254 6.315-18.603 3.686-6.383-2.628-10.547-8.875-10.547-15.77v-204.8c0-28.228 22.972-51.2 51.2-51.2h142.404c13.483 0 26.692-5.461 36.215-14.985l150.665-150.665c6.383-6.417 17.715-6.417 24.132 0l42.667 42.667c3.618 3.618 8.431 5.598 13.517 5.598 0.034 0 0.034 0 0.034 0 5.086 0 9.899-2.014 13.517-5.632 7.475-7.441 7.475-19.593 0-27.034zM425.643 755.2c56.457 0 102.4 45.943 102.4 102.4s-45.943 102.4-102.4 102.4-102.4-45.943-102.4-102.4 45.943-102.4 102.4-102.4zM425.643 925.867c37.649 0 68.267-30.618 68.267-68.267s-30.618-68.267-68.267-68.267c-37.649 0-68.267 30.618-68.267 68.267s30.618 68.267 68.267 68.267z" />
<glyph unicode="&#xe91e;" glyph-name="Distance-1" d="M153.6 516.267c-6.827 0-10.24 3.413-13.653 6.827-13.653 20.48-139.947 204.8-139.947 283.307 0 85.333 68.267 153.6 153.6 153.6s153.6-68.267 153.6-153.6c0-78.507-126.293-262.827-139.947-283.307-3.413-3.413-6.827-6.827-13.653-6.827zM153.6 925.867c-64.853 0-119.467-54.613-119.467-119.467 0-51.2 75.093-177.493 119.467-242.347 44.373 64.853 119.467 191.147 119.467 242.347 0 64.853-54.613 119.467-119.467 119.467zM836.267-64c-6.827 0-10.24 3.413-13.653 10.24-6.827 13.653-174.080 307.2-174.080 409.6 0 109.227 85.333 194.56 187.733 194.56s187.733-88.747 187.733-194.56c0-102.4-167.253-395.947-174.080-409.6-3.413-6.827-6.827-10.24-13.653-10.24zM836.267 516.267c-85.333 0-153.6-71.68-153.6-160.427 0-71.68 98.987-269.653 153.6-365.227 54.613 98.987 153.6 296.96 153.6 365.227 0 88.747-68.267 160.427-153.6 160.427zM768-64c-23.893 0-47.787 0-71.68 3.413-10.24 0-17.067 10.24-13.653 20.48s10.24 17.067 20.48 13.653c20.48-3.413 40.96-3.413 64.853-3.413 10.24 0 17.067-6.827 17.067-17.067s-6.827-17.067-17.067-17.067zM634.88-40.107c-3.413 0-3.413 0-6.827 0-23.893 10.24-44.373 23.893-61.44 37.547-6.827 6.827-6.827 17.067 0 23.893s17.067 6.827 23.893 0c13.653-13.653 30.72-23.893 51.2-34.133 10.24-3.413 13.653-13.653 10.24-23.893-3.413 0-10.24-3.413-17.067-3.413zM535.893 48.64c-6.827 0-10.24 3.413-13.653 10.24-10.24 20.48-20.48 40.96-27.307 68.267-3.413 10.24 3.413 17.067 10.24 20.48 10.24 3.413 17.067-3.413 20.48-10.24 6.827-23.893 13.653-44.373 23.893-61.44 3.413-6.827 0-17.067-6.827-23.893 0-3.413-3.413-3.413-6.827-3.413zM498.347 178.347c-6.827 0-17.067 6.827-17.067 13.653-3.413 23.893-6.827 44.373-10.24 68.267 0 10.24 6.827 17.067 13.653 20.48 10.24 0 17.067-6.827 20.48-13.653 3.413-23.893 6.827-44.373 10.24-68.267 0-10.24-6.827-20.48-17.067-20.48 0 0 0 0 0 0zM481.28 311.467c-6.827 0-17.067 6.827-17.067 13.653-3.413 27.307-6.827 47.787-13.653 64.853-3.413 10.24 3.413 17.067 13.653 20.48s17.067-3.413 20.48-13.653c6.827-20.48 10.24-40.96 13.653-68.267 0-6.827-6.827-13.653-17.067-17.067 0 3.413 0 0 0 0zM440.32 444.587c-6.827 0-13.653 3.413-13.653 10.24-10.24 20.48-23.893 34.133-37.547 47.787-6.827 6.827-6.827 17.067 0 23.893s17.067 6.827 23.893 0c17.067-17.067 34.133-34.133 44.373-58.027 3.413-6.827 0-17.067-6.827-23.893-3.413 0-6.827 0-10.24 0zM341.333 529.92c-3.413 0-3.413 0-6.827 0-17.067 6.827-37.547 13.653-61.44 13.653-10.24 0-17.067 10.24-13.653 20.48 0 10.24 10.24 17.067 20.48 13.653 23.893-3.413 47.787-10.24 68.267-17.067 10.24-3.413 13.653-13.653 10.24-20.48-3.413-3.413-10.24-10.24-17.067-10.24zM153.6 755.2c-27.307 0-51.2 23.893-51.2 51.2s23.893 51.2 51.2 51.2 51.2-23.893 51.2-51.2-23.893-51.2-51.2-51.2zM153.6 823.467c-10.24 0-17.067-6.827-17.067-17.067s6.827-17.067 17.067-17.067 17.067 6.827 17.067 17.067-6.827 17.067-17.067 17.067zM836.267 277.333c-47.787 0-85.333 37.547-85.333 85.333s37.547 85.333 85.333 85.333 85.333-37.547 85.333-85.333-37.547-85.333-85.333-85.333zM836.267 413.867c-27.307 0-51.2-23.893-51.2-51.2s23.893-51.2 51.2-51.2 51.2 23.893 51.2 51.2-23.893 51.2-51.2 51.2z" />
<glyph unicode="&#xe91f;" glyph-name="Down-2" d="M512 192c-3.413 0-10.24 0-13.653 3.413l-477.867 477.867c-6.827 6.827-6.827 17.067 0 23.893s17.067 6.827 23.893 0l467.627-464.213 464.213 467.627c6.827 6.827 17.067 6.827 23.893 0s6.827-17.067 0-23.893l-477.867-477.867c0-6.827-6.827-6.827-10.24-6.827z" />
<glyph unicode="&#xe920;" glyph-name="Down-3" d="M512 4.267c-3.413 0-10.24 0-13.653 3.413l-477.867 477.867c-6.827 6.827-6.827 17.067 0 23.893s17.067 6.827 23.893 0l467.627-464.213 464.213 464.213c6.827 6.827 17.067 6.827 23.893 0s6.827-17.067 0-23.893l-477.867-477.867c0-3.413-6.827-3.413-10.24-3.413zM512 379.733c-3.413 0-10.24 0-13.653 3.413l-477.867 477.867c-6.827 6.827-6.827 17.067 0 23.893s17.067 6.827 23.893 0l467.627-464.213 464.213 467.627c6.827 6.827 17.067 6.827 23.893 0s6.827-17.067 0-23.893l-477.867-477.867c0-6.827-6.827-6.827-10.24-6.827z" />
<glyph unicode="&#xe921;" glyph-name="Download" d="M499.917 145.783c0.58-0.546 1.297-0.785 1.911-1.263 1.161-0.887 2.287-1.843 3.652-2.389 2.082-0.887 4.301-1.331 6.519-1.331s4.437 0.444 6.519 1.331c2.116 0.887 4.028 2.185 5.632 3.789l272.93 272.93c6.656 6.656 6.656 17.476 0 24.132s-17.476 6.656-24.132 0l-243.883-243.883v743.834c0 9.421-7.646 17.067-17.067 17.067s-17.067-7.646-17.067-17.067v-743.902l-243.951 243.951c-6.656 6.656-17.476 6.656-24.132 0s-6.656-17.476 0-24.132l273.067-273.067zM989.867 209.067c-9.421 0-17.067-7.646-17.067-17.067v-221.867h-921.6v221.867c0 9.421-7.646 17.067-17.067 17.067s-17.067-7.646-17.067-17.067v-238.933c0-9.421 7.646-17.067 17.067-17.067h955.733c9.421 0 17.067 7.646 17.067 17.067v238.933c0 9.421-7.646 17.067-17.067 17.067z" />
<glyph unicode="&#xe922;" glyph-name="Enlarge" d="M17.067 71.885c9.421 0 17.067 7.646 17.067 17.067v69.7c0 9.421-7.646 17.067-17.067 17.067s-17.067-7.646-17.067-17.067v-69.7c0-9.421 7.646-17.067 17.067-17.067zM73.899-29.867h-13.79c-11.639 0-21.914 7.817-25.020 18.978-2.56 9.079-12.049 14.336-21.026 11.878-9.079-2.526-14.404-11.947-11.878-21.026 7.236-25.873 31.027-43.964 57.924-43.964h13.79c9.421 0 17.067 7.646 17.067 17.067s-7.646 17.067-17.067 17.067zM422.434-29.867h-69.7c-9.421 0-17.067-7.646-17.067-17.067s7.646-17.067 17.067-17.067h69.7c9.421 0 17.067 7.646 17.067 17.067s-7.646 17.067-17.067 17.067zM801.724 925.867h69.7c9.421 0 17.067 7.646 17.067 17.067s-7.646 17.067-17.067 17.067h-69.7c-9.421 0-17.067-7.646-17.067-17.067s7.646-17.067 17.067-17.067zM17.067 246.17c9.421 0 17.067 7.646 17.067 17.067v34.133c0 9.421-7.646 17.067-17.067 17.067s-17.067-7.646-17.067-17.067v-34.133c0-9.421 7.646-17.067 17.067-17.067zM662.63 925.867h34.133c9.421 0 17.067 7.646 17.067 17.067s-7.646 17.067-17.067 17.067h-34.133c-9.421 0-17.067-7.646-17.067-17.067s7.646-17.067 17.067-17.067zM596.685-29.867h-69.7c-9.421 0-17.067-7.646-17.067-17.067s7.646-17.067 17.067-17.067h69.7c9.455 0 17.067 7.646 17.067 17.067s-7.646 17.067-17.067 17.067zM59.085 379.733h462.097c32.597 0 59.085 26.487 59.085 59.085v462.097c0 32.597-26.487 59.085-59.085 59.085h-462.097c-32.597 0-59.085-26.487-59.085-59.085v-462.097c0-32.597 26.487-59.085 59.085-59.085zM34.133 900.915c0 13.756 11.196 24.951 24.951 24.951h462.097c13.756 0 24.951-11.196 24.951-24.951v-462.097c0-13.756-11.196-24.951-24.951-24.951h-462.097c-13.756 0-24.951 11.196-24.951 24.951v462.097zM248.183-29.867h-69.7c-9.421 0-17.067-7.646-17.067-17.067s7.646-17.067 17.067-17.067h69.7c9.421 0 17.067 7.646 17.067 17.067s-7.646 17.067-17.067 17.067zM1006.933 449.707c-9.421 0-17.067-7.646-17.067-17.067v-69.7c0-9.421 7.646-17.067 17.067-17.067s17.067 7.612 17.067 17.067v69.7c0 9.421-7.646 17.067-17.067 17.067zM1006.933 798.242c-9.421 0-17.067-7.646-17.067-17.067v-69.7c0-9.421 7.646-17.067 17.067-17.067s17.067 7.612 17.067 17.067v69.7c0 9.421-7.646 17.067-17.067 17.067zM1006.933 623.957c-9.421 0-17.067-7.646-17.067-17.067v-69.7c0-9.421 7.646-17.067 17.067-17.067s17.067 7.646 17.067 17.067v69.7c0 9.421-7.646 17.067-17.067 17.067zM980.548 957.645c-9.114 2.594-18.5-2.628-21.129-11.674-2.594-9.079 2.594-18.534 11.674-21.129 11.059-3.174 18.773-13.449 18.773-24.951v-14.165c0-9.421 7.646-17.067 17.067-17.067s17.067 7.646 17.067 17.067v14.165c0 26.624-17.852 50.415-43.452 57.754zM682.667 89.6c0-9.421 7.646-17.067 17.067-17.067h170.667c2.219 0 4.437 0.444 6.519 1.331 1.911 0.785 3.55 1.98 5.052 3.345 0.137 0.137 0.341 0.171 0.478 0.307 0 0 0 0 0 0 1.57 1.57 2.833 3.482 3.686 5.564 0.478 1.195 0.546 2.423 0.751 3.686 0.171 0.956 0.58 1.843 0.58 2.833v170.667c0 9.421-7.646 17.067-17.067 17.067s-17.067-7.646-17.067-17.067v-129.502l-209.818 209.818c-6.656 6.656-17.476 6.656-24.132 0s-6.656-17.476 0-24.132l209.783-209.783h-129.434c-9.421 0-17.067-7.646-17.067-17.067zM770.97-29.867h-69.7c-9.421 0-17.067-7.646-17.067-17.067s7.646-17.067 17.067-17.067h69.7c9.421 0 17.067 7.646 17.067 17.067s-7.646 17.067-17.067 17.067zM945.254-29.867h-69.7c-9.421 0-17.067-7.646-17.067-17.067s7.646-17.067 17.067-17.067h69.7c9.421 0 17.067 7.646 17.067 17.067s-7.646 17.067-17.067 17.067zM1006.933 101.137c-9.421 0-17.067-7.646-17.067-17.067v-69.7c0-9.421 7.646-17.067 17.067-17.067s17.067 7.646 17.067 17.067v69.7c0 9.421-7.646 17.067-17.067 17.067zM1006.933 275.422c-9.421 0-17.067-7.646-17.067-17.067v-69.7c0-9.421 7.646-17.067 17.067-17.067s17.067 7.612 17.067 17.067v69.7c0 9.421-7.646 17.067-17.067 17.067z" />
<glyph unicode="&#xe923;" glyph-name="Ethernet" d="M290.133 704h-238.933c-10.24 0-17.067 6.827-17.067 17.067v136.533c0 10.24 6.827 17.067 17.067 17.067h238.933c10.24 0 17.067-6.827 17.067-17.067v-136.533c0-10.24-6.827-17.067-17.067-17.067zM68.267 738.133h204.8v102.4h-204.8v-102.4zM290.133 396.8h-238.933c-3.413 0-10.24 3.413-13.653 3.413l-34.133 34.133c0 3.413-3.413 10.24-3.413 13.653v273.067c0 10.24 6.827 17.067 17.067 17.067h34.133c10.24 0 17.067-6.827 17.067-17.067s-6.827-17.067-17.067-17.067h-17.067v-249.173l23.893-23.893h225.28l23.893 23.893v249.173h-17.067c-10.24 0-17.067 6.827-17.067 17.067s6.827 17.067 17.067 17.067h34.133c10.24 0 17.067-6.827 17.067-17.067v-273.067c0-3.413-3.413-10.24-3.413-13.653l-34.133-34.133c-3.413 0-10.24-3.413-13.653-3.413zM119.467 772.267c-10.24 0-17.067 6.827-17.067 17.067v68.267c0 10.24 6.827 17.067 17.067 17.067s17.067-6.827 17.067-17.067v-68.267c0-10.24-6.827-17.067-17.067-17.067zM221.867 772.267c-10.24 0-17.067 6.827-17.067 17.067v68.267c0 10.24 6.827 17.067 17.067 17.067s17.067-6.827 17.067-17.067v-68.267c0-10.24-6.827-17.067-17.067-17.067zM256 567.467h-170.667c-10.24 0-17.067 6.827-17.067 17.067v136.533c0 10.24 6.827 17.067 17.067 17.067s17.067-6.827 17.067-17.067v-119.467h136.533v119.467c0 10.24 6.827 17.067 17.067 17.067s17.067-6.827 17.067-17.067v-136.533c0-10.24-6.827-17.067-17.067-17.067zM187.733 499.2h-34.133c-10.24 0-17.067 6.827-17.067 17.067s6.827 17.067 17.067 17.067h34.133c10.24 0 17.067-6.827 17.067-17.067s-6.827-17.067-17.067-17.067zM221.867 226.133h-102.4c-6.827 0-10.24 3.413-13.653 6.827l-51.2 68.267c-6.827 6.827-3.413 17.067 3.413 23.893s17.067 3.413 23.893-3.413l44.373-61.44h85.333l44.373 61.44c6.827 6.827 17.067 10.24 23.893 3.413s10.24-17.067 3.413-23.893l-51.2-68.267c0-3.413-3.413-6.827-10.24-6.827zM273.067 294.4h-204.8c-6.827 0-17.067 6.827-17.067 13.653l-17.067 102.4c0 10.24 3.413 17.067 13.653 20.48 10.24 0 17.067-3.413 20.48-13.653l13.653-88.747h177.493l13.653 88.747c0 10.24 10.24 17.067 20.48 13.653 10.24 0 17.067-10.24 13.653-20.48l-17.067-102.4c0-6.827-10.24-13.653-17.067-13.653zM153.6 21.333c-10.24 0-17.067 6.827-17.067 17.067 0 112.64 17.067 204.8 17.067 208.213 0 10.24 10.24 17.067 20.48 13.653 10.24 0 17.067-10.24 13.653-20.48 0 0-17.067-95.573-17.067-201.387 0-10.24-6.827-17.067-17.067-17.067zM1006.933 226.133h-785.067c-10.24 0-17.067 6.827-17.067 17.067s6.827 17.067 17.067 17.067h785.067c10.24 0 17.067-6.827 17.067-17.067s-6.827-17.067-17.067-17.067zM631.467 38.4c-10.24 0-17.067 6.827-17.067 17.067v85.333c0 10.24 6.827 17.067 17.067 17.067s17.067-6.827 17.067-17.067v-85.333c0-10.24-6.827-17.067-17.067-17.067zM802.133 21.333h-341.333c-10.24 0-17.067 6.827-17.067 17.067s6.827 17.067 17.067 17.067h341.333c10.24 0 17.067-6.827 17.067-17.067s-6.827-17.067-17.067-17.067zM938.667 123.733h-648.533c-47.787 0-85.333 37.547-85.333 85.333v34.133c0 3.413 0 6.827 3.413 10.24l47.787 64.853 17.067 98.987c0 3.413 3.413 6.827 3.413 10.24l30.72 27.307v197.973c0 10.24 6.827 17.067 17.067 17.067h614.4c47.787 0 85.333-37.547 85.333-85.333v-375.467c0-47.787-37.547-85.333-85.333-85.333zM238.933 236.373v-27.307c0-27.307 23.893-51.2 51.2-51.2h648.533c27.307 0 51.2 23.893 51.2 51.2v375.467c0 27.307-23.893 51.2-51.2 51.2h-597.333v-187.733c0-3.413-3.413-10.24-3.413-13.653l-30.72-27.307-17.067-95.573c0-3.413 0-6.827-3.413-6.827l-47.787-68.267z" />
<glyph unicode="&#xe924;" d="M443.733 618.667c-6.827 0-13.653 3.413-17.067 13.653 0 6.827-34.133 133.12-34.133 180.907 0 23.893 13.653 81.92 122.88 81.92 58.027 0 184.32-58.027 184.32-102.4 0-20.48-23.893-34.133-58.027-51.2s-81.92-40.96-78.507-68.267c0-13.653-6.827-20.48-17.067-20.48s-17.067 6.827-17.067 17.067c-3.413 51.2 54.613 78.507 98.987 98.987 13.653 6.827 30.72 17.067 37.547 20.48-10.24 20.48-95.573 68.267-150.187 68.267-34.133 0-88.747-6.827-88.747-47.787 0-34.133 23.893-136.533 34.133-170.667 3.413-10.24-3.413-17.067-13.653-20.48 0 0-3.413 0-3.413 0z" />
<glyph unicode="&#xe925;" d="M354.987 383.147c-27.307 0-61.44 17.067-95.573 75.093-17.067 27.307-27.307 71.68-27.307 116.053 0 34.133 0 81.92 23.893 95.573 17.067 10.24 40.96-3.413 71.68-23.893s75.093-51.2 98.987-34.133c6.827 3.413 17.067 3.413 23.893-6.827 3.413-6.827 3.413-17.067-6.827-23.893-40.96-27.307-95.573 10.24-136.533 34.133-10.24 10.24-27.307 20.48-34.133 23.893-10.24-17.067-10.24-116.053 17.067-160.427 17.067-27.307 51.2-75.093 85.333-54.613 30.72 17.067 105.813 88.747 129.707 116.053 6.827 6.827 17.067 6.827 23.893 0s6.827-17.067 0-23.893c-3.413-3.413-95.573-95.573-136.533-119.467-10.24-6.827-20.48-13.653-37.547-13.653z" />
<glyph unicode="&#xe926;" d="M597.333 342.187c-6.827 0-13.653 0-17.067 3.413-17.067 10.24-17.067 37.547-13.653 75.093s6.827 88.747-20.48 102.4c-6.827 3.413-10.24 13.653-6.827 23.893 3.413 6.827 13.653 10.24 23.893 6.827 44.373-23.893 40.96-88.747 37.547-136.533 0-13.653-3.413-34.133 0-44.373 0 0 0 0 0 0 20.48 0 105.813 51.2 133.12 95.573 13.653 23.893 23.893 47.787 23.893 64.853s-6.827 27.307-17.067 34.133c-30.72 17.067-129.707 47.787-163.84 54.613-10.24 3.413-13.653 10.24-13.653 20.48 3.413 10.24 10.24 13.653 20.48 13.653 6.827 0 133.12-37.547 174.080-58.027 23.893-13.653 37.547-37.547 34.133-64.853 0-23.893-10.24-51.2-27.307-81.92-30.72-44.373-119.467-109.227-167.253-109.227z" />
<glyph unicode="&#xe927;" d="M716.8-64h-443.733c-6.827 0-13.653 3.413-17.067 10.24s0 13.653 3.413 17.067l170.667 170.667c3.413 3.413 6.827 3.413 13.653 3.413h102.4c3.413 0 10.24-3.413 13.653-3.413l170.667-170.667c3.413-3.413 6.827-13.653 3.413-17.067s-10.24-10.24-17.067-10.24zM314.027-29.867h361.813l-136.533 136.533h-88.747l-136.533-136.533z" />
<glyph unicode="&#xe928;" d="M546.133 113.493c-10.24 0-17.067 6.827-17.067 17.067v129.707c0 10.24 6.827 17.067 17.067 17.067s17.067-6.827 17.067-17.067v-129.707c0-6.827-6.827-17.067-17.067-17.067z" />
<glyph unicode="&#xe929;" d="M443.733 106.667c-10.24 0-17.067 6.827-17.067 17.067v136.533c0 10.24 6.827 17.067 17.067 17.067s17.067-6.827 17.067-17.067v-136.533c0-10.24-6.827-17.067-17.067-17.067z" />
<glyph unicode="&#xe92a;" d="M512 243.2c-197.973 0-358.4 160.427-358.4 358.4s160.427 358.4 358.4 358.4 358.4-160.427 358.4-358.4-160.427-358.4-358.4-358.4zM512 925.867c-177.493 0-324.267-146.773-324.267-324.267s146.773-324.267 324.267-324.267 324.267 146.773 324.267 324.267-146.773 324.267-324.267 324.267z" />
<glyph unicode="&#xe92b;" d="M512 516.267c-47.787 0-85.333 37.547-85.333 85.333s37.547 85.333 85.333 85.333 85.333-37.547 85.333-85.333-37.547-85.333-85.333-85.333zM512 652.8c-27.307 0-51.2-23.893-51.2-51.2s23.893-51.2 51.2-51.2 51.2 23.893 51.2 51.2-23.893 51.2-51.2 51.2z" />
<glyph unicode="&#xe92c;" d="M529.067 601.6c0-9.426-7.641-17.067-17.067-17.067s-17.067 7.641-17.067 17.067c0 9.426 7.641 17.067 17.067 17.067s17.067-7.641 17.067-17.067z" />
<glyph unicode="&#xe92d;" d="M546.133 601.6c0-18.851-15.282-34.133-34.133-34.133s-34.133 15.282-34.133 34.133c0 18.851 15.282 34.133 34.133 34.133s34.133-15.282 34.133-34.133z" />
<glyph unicode="&#xe92e;" glyph-name="Financial-Care-2" d="M153.6 4.267h-136.533c-10.24 0-17.067 6.827-17.067 17.067v409.6c0 3.413 3.413 10.24 3.413 13.653s10.24 3.413 13.653 3.413c34.133 0 197.973-3.413 232.107-37.547 3.413-3.413 6.827-10.24 6.827-13.653-10.24-112.64-81.92-368.64-85.333-378.88s-10.24-13.653-17.067-13.653zM34.133 38.4h105.813c13.653 51.2 68.267 252.587 81.92 351.573-30.72 13.653-119.467 20.48-187.733 23.893v-375.467zM573.44-64c-27.307 0-51.2 6.827-88.747 20.48l-320.853 105.813c-10.24 3.413-13.653 13.653-10.24 20.48s13.653 13.653 20.48 10.24l324.267-109.227c78.507-30.72 88.747-30.72 266.24 40.96l218.453 98.987c-23.893 34.133-64.853 47.787-109.227 37.547l-163.84-40.96c-10.24-3.413-17.067 3.413-20.48 13.653s3.413 17.067 13.653 20.48l163.84 40.96c61.44 17.067 126.293-13.653 157.013-71.68 3.413-3.413 3.413-10.24 0-13.653s-3.413-6.827-10.24-10.24l-235.52-109.227c-112.64-34.133-163.84-54.613-204.8-54.613zM617.813 110.080c-10.24 0-20.48 0-27.307 3.413l-187.733 37.547c-10.24 3.413-13.653 10.24-13.653 20.48 3.413 10.24 10.24 13.653 20.48 13.653l187.733-37.547c17.067-3.413 34.133-3.413 47.787 0l44.373 10.24c-3.413 44.373-20.48 64.853-71.68 78.507l-389.12 85.333c-10.24 3.413-13.653 10.24-13.653 20.48 3.413 10.24 10.24 13.653 20.48 13.653l385.707-85.333c68.267-17.067 98.987-54.613 98.987-116.053v-6.827c0-6.827-6.827-13.653-13.653-17.067l-58.027-13.653c-6.827-6.827-20.48-6.827-30.72-6.827zM965.973 157.867c0 0-3.413 0-3.413 0-10.24 3.413-13.653 10.24-13.653 20.48 3.413 20.48 6.827 40.96 6.827 61.44 0 88.747-174.080 320.853-249.173 413.013h-153.6c-30.72-37.547-191.147-228.693-232.107-331.093 0-10.24-10.24-13.653-20.48-10.24s-13.653 13.653-10.24 20.48c44.373 119.467 235.52 337.92 242.347 348.16 3.413 3.413 10.24 6.827 13.653 6.827h170.667c3.413 0 10.24-3.413 13.653-6.827 10.24-13.653 262.827-317.44 262.827-440.32 0-23.893-3.413-47.787-6.827-68.267-3.413-6.827-10.24-13.653-20.48-13.653zM802.133 652.8h-341.333c-10.24 0-17.067 6.827-17.067 17.067s6.827 17.067 17.067 17.067h341.333c10.24 0 17.067-6.827 17.067-17.067s-6.827-17.067-17.067-17.067zM716.8 652.8h-170.667c-3.413 0-6.827 0-10.24 3.413-20.48 13.653-194.56 150.187-201.387 225.28 0 13.653 3.413 27.307 10.24 37.547 34.133 40.96 129.707-20.48 180.907-54.613 27.307 37.547 75.093 95.573 105.813 95.573s78.507-58.027 105.813-95.573c51.2 37.547 143.36 95.573 180.907 54.613 10.24-10.24 13.653-23.893 10.24-37.547-6.827-78.507-180.907-211.627-201.387-225.28-3.413-3.413-6.827-3.413-10.24-3.413zM552.96 686.933h160.427c71.68 54.613 177.493 153.6 184.32 197.973 0 6.827 0 10.24-3.413 10.24-10.24 10.24-78.507-17.067-146.773-71.68-6.827 0-10.24 0-17.067 0-3.413 0-10.24 3.413-10.24 6.827-34.133 47.787-75.093 92.16-88.747 95.573-13.653 0-54.613-47.787-88.747-95.573-3.413-3.413-6.827-6.827-10.24-6.827s-10.24 0-13.653 3.413c-68.267 51.2-136.533 81.92-146.773 71.68 0-3.413-3.413-3.413-3.413-10.24 3.413-47.787 112.64-146.773 184.32-201.387zM682.667 226.133c-3.413 0-10.24 3.413-13.653 3.413-6.827 6.827-6.827 17.067 0 23.893s13.653 17.067 13.653 27.307c0 20.48-17.067 34.133-51.2 44.373h-3.413c-54.613 10.24-81.92 37.547-81.92 78.507 0 44.373 37.547 78.507 85.333 78.507 44.373 0 81.92-30.72 85.333-71.68 0-10.24-6.827-17.067-17.067-17.067s-17.067 6.827-17.067 17.067c0 23.893-23.893 40.96-51.2 40.96s-51.2-20.48-51.2-44.373c0-20.48 17.067-34.133 51.2-44.373h3.413c54.613-13.653 81.92-37.547 81.92-78.507 0-20.48-6.827-37.547-23.893-51.2-3.413-6.827-6.827-6.827-10.24-6.827zM631.467 243.2c-10.24 0-17.067 6.827-17.067 17.067v238.933c0 10.24 6.827 17.067 17.067 17.067s17.067-6.827 17.067-17.067v-238.933c0-10.24-6.827-17.067-17.067-17.067z" />
<glyph unicode="&#xe92f;" glyph-name="First-ad" d="M921.6 618.667h-238.933v238.933c0 37.649-30.618 68.267-68.267 68.267h-204.8c-37.649 0-68.267-30.618-68.267-68.267v-238.933h-238.933c-37.649 0-68.267-30.618-68.267-68.267v-204.8c0-37.649 30.618-68.267 68.267-68.267h238.933v-238.933c0-37.649 30.618-68.267 68.267-68.267h204.8c37.649 0 68.267 30.618 68.267 68.267v238.933h238.933c37.649 0 68.267 30.618 68.267 68.267v204.8c0 37.649-30.618 68.267-68.267 68.267zM955.733 345.6c0-18.807-15.292-34.133-34.133-34.133h-256c-9.421 0-17.067-7.646-17.067-17.067v-256c0-18.807-15.292-34.133-34.133-34.133h-204.8c-18.842 0-34.133 15.326-34.133 34.133v256c0 9.421-7.646 17.067-17.067 17.067h-256c-18.842 0-34.133 15.326-34.133 34.133v204.8c0 18.807 15.292 34.133 34.133 34.133h256c9.421 0 17.067 7.646 17.067 17.067v256c0 18.807 15.292 34.133 34.133 34.133h204.8c18.842 0 34.133-15.326 34.133-34.133v-256c0-9.421 7.646-17.067 17.067-17.067h256c18.842 0 34.133-15.326 34.133-34.133v-204.8z" />
<glyph unicode="&#xe930;" glyph-name="Flying-Rocket" d="M1018.948 954.948c-3.413 3.447-8.26 5.564-13.005 4.983-9.455-0.546-233.984-14.541-395.059-175.616-45.568-45.568-89.634-96.802-129.502-146.807-3.004 1.775-6.383 2.935-10.001 2.423l-242.381-21.333c-4.028-0.375-7.748-2.116-10.581-4.949l-128-128c-4.847-4.881-6.315-12.22-3.686-18.603s8.875-10.547 15.77-10.547h246.135c-18.5-27.375-30.959-46.797-36.079-54.886l-200.192-91.75c-5.086-2.321-8.704-6.997-9.694-12.493-0.444-2.458-0.137-4.915 0.478-7.27-11.981-7.407-23.586-15.838-34.133-26.351-70.895-70.895-69.086-301.158-68.983-310.921 0.102-9.25 7.612-16.759 16.862-16.862h4.915c35.294 0 239.923 2.901 306.005 68.983 10.547 10.513 18.978 22.153 26.453 34.236 1.365-0.341 2.731-0.819 4.164-0.819 0.99 0 2.014 0.068 3.038 0.239 5.495 0.99 10.172 4.642 12.459 9.694l91.75 200.192c7.202 4.574 23.654 15.155 46.421 30.413v-232.004c0-6.895 4.164-13.141 10.547-15.77 2.082-0.887 4.335-1.297 6.519-1.297 4.437 0 8.806 1.741 12.049 4.983l128 128c2.833 2.833 4.574 6.588 4.949 10.581l21.060 238.831c51.985 41.199 105.643 87.108 153.122 134.588 161.075 161.109 175.070 385.638 175.582 395.127 0.239 4.847-1.536 9.557-4.983 13.005zM143.701 490.667l94.481 94.481 217.088 19.115c-33.212-43.11-62.532-83.831-86.016-117.692-2.97 2.458-6.622 4.13-10.752 4.13h-214.801zM303.684 29.082c-46.455-46.455-197.086-57.993-269.517-58.982 1.024 72.465 12.561 223.061 58.982 269.517 10.069 10.035 21.129 17.783 32.666 24.269l40.141-40.141c-13.38-31.744-24.815-82.773-29.321-132.642-0.444-5.052 1.399-10.035 4.949-13.619 3.209-3.209 7.578-4.983 12.083-4.983 0.512 0 1.024 0 1.536 0.068 54.682 4.983 102.229 18.364 130.765 31.198l42.052-42.052c-6.519-11.537-14.268-22.596-24.337-32.631zM172.919 108.919c4.608 35.772 12.083 66.628 19.524 88.337l67.345-67.345c-21.606-8.158-52.019-16.247-86.869-20.992zM353.109 84.855l-47.616 47.616c-0.137 0.307-0.137 0.649-0.307 0.956-1.673 2.935-4.233 4.881-6.997 6.349l-149.265 149.299 171.657 78.711 111.241-111.241-78.711-171.691zM640.717 182.579l-94.481-94.481v214.016c32.154 22.221 70.895 49.903 112.196 81.442l-17.715-200.977zM824.252 570.982c-134.929-134.929-321.877-258.355-369.527-289.007l-108.681 108.646c30.652 47.684 154.044 234.633 289.007 369.562 124.723 124.723 295.083 156.262 352.768 163.601-7.339-57.685-38.844-228.079-163.567-352.802zM742.502 627.166c32.939 0 59.733 26.795 59.733 59.733s-26.795 59.733-59.733 59.733c-32.939 0-59.733-26.795-59.733-59.733s26.829-59.733 59.733-59.733zM742.502 712.499c14.097 0 25.6-11.469 25.6-25.6s-11.503-25.6-25.6-25.6c-14.097 0-25.6 11.469-25.6 25.6s11.537 25.6 25.6 25.6z" />
<glyph unicode="&#xe931;" glyph-name="Free-Tag-2" d="M136.533 294.4c-10.24 0-17.067 6.827-17.067 17.067v273.067c0 10.24 6.827 17.067 17.067 17.067h136.533c10.24 0 17.067-6.827 17.067-17.067s-6.827-17.067-17.067-17.067h-119.467v-256c0-10.24-6.827-17.067-17.067-17.067zM238.933 430.933h-85.333c-10.24 0-17.067 6.827-17.067 17.067s6.827 17.067 17.067 17.067h85.333c10.24 0 17.067-6.827 17.067-17.067s-6.827-17.067-17.067-17.067zM477.867 294.4c-3.413 0-10.24 3.413-13.653 6.827l-105.813 122.88v-112.64c0-10.24-6.827-17.067-17.067-17.067s-17.067 6.827-17.067 17.067v273.067c0 10.24 6.827 17.067 17.067 17.067h68.267c44.373 0 85.333-40.96 85.333-85.333 0-51.2-27.307-85.333-68.267-85.333h-30.72l95.573-109.227c6.827-6.827 6.827-17.067 0-23.893-6.827-3.413-10.24-3.413-13.653-3.413zM358.4 465.067h68.267c34.133 0 34.133 44.373 34.133 51.2 0 27.307-23.893 51.2-51.2 51.2h-51.2v-102.4zM682.667 294.4h-136.533c-10.24 0-17.067 6.827-17.067 17.067v273.067c0 10.24 6.827 17.067 17.067 17.067h136.533c10.24 0 17.067-6.827 17.067-17.067s-6.827-17.067-17.067-17.067h-119.467v-238.933h119.467c10.24 0 17.067-6.827 17.067-17.067s-6.827-17.067-17.067-17.067zM648.533 430.933h-102.4c-10.24 0-17.067 6.827-17.067 17.067s6.827 17.067 17.067 17.067h102.4c10.24 0 17.067-6.827 17.067-17.067s-6.827-17.067-17.067-17.067zM887.467 294.4h-136.533c-10.24 0-17.067 6.827-17.067 17.067v273.067c0 10.24 6.827 17.067 17.067 17.067h136.533c10.24 0 17.067-6.827 17.067-17.067s-6.827-17.067-17.067-17.067h-119.467v-238.933h119.467c10.24 0 17.067-6.827 17.067-17.067s-6.827-17.067-17.067-17.067zM853.333 430.933h-102.4c-10.24 0-17.067 6.827-17.067 17.067s6.827 17.067 17.067 17.067h102.4c10.24 0 17.067-6.827 17.067-17.067s-6.827-17.067-17.067-17.067zM512-46.933c-273.067 0-494.933 221.867-494.933 494.933s221.867 494.933 494.933 494.933 494.933-221.867 494.933-494.933-221.867-494.933-494.933-494.933zM512 908.8c-252.587 0-460.8-208.213-460.8-460.8s208.213-460.8 460.8-460.8 460.8 208.213 460.8 460.8-208.213 460.8-460.8 460.8zM512 89.6c-92.16 0-184.32 34.133-252.587 105.813-6.827 6.827-6.827 17.067 0 23.893s17.067 6.827 23.893 0c126.293-126.293 331.093-126.293 457.387 0 6.827 6.827 17.067 6.827 23.893 0s6.827-17.067 0-23.893c-68.267-71.68-160.427-105.813-252.587-105.813zM754.347 673.28c-3.413 0-10.24 0-13.653 3.413-126.293 126.293-331.093 126.293-457.387 0-6.827-6.827-17.067-6.827-23.893 0s-6.827 17.067 0 23.893c139.947 139.947 368.64 139.947 505.173 0 6.827-6.827 6.827-17.067 0-23.893-3.413-3.413-6.827-3.413-10.24-3.413z" />
<glyph unicode="&#xe932;" glyph-name="French-Fries" d="M785.067 516.267c0 0-3.413 0 0 0-13.653 3.413-17.067 10.24-17.067 20.48l23.893 116.053-51.2 13.653-6.827-133.12c0-10.24-6.827-17.067-17.067-17.067s-17.067 10.24-17.067 17.067l10.24 153.6c0 3.413 3.413 10.24 6.827 13.653s10.24 3.413 13.653 3.413l85.333-20.48c10.24-3.413 13.653-10.24 13.653-20.48l-27.307-133.12c-3.413-6.827-10.24-13.653-17.067-13.653zM529.067 328.533c0 0 0 0 0 0-10.24 0-17.067 6.827-17.067 17.067l17.067 426.667c0 10.24 6.827 17.067 17.067 17.067h102.4c3.413 0 10.24-3.413 13.653-6.827s3.413-6.827 3.413-13.653l-34.133-409.6c0-10.24-10.24-17.067-17.067-17.067-10.24 0-17.067 10.24-17.067 17.067l34.133 392.533h-68.267l-17.067-406.187c0-10.24-6.827-17.067-17.067-17.067zM102.4 516.267c-6.827 0-17.067 6.827-17.067 13.653l-34.133 238.933c0 6.827 3.413 17.067 10.24 17.067l102.4 34.133c3.413 0 10.24 0 13.653 0 3.413-3.413 6.827-6.827 6.827-13.653l20.48-139.947c0-10.24-3.413-17.067-13.653-20.48-6.827 0-13.653 6.827-17.067 17.067l-17.067 119.467-68.267-23.893 30.72-225.28c0-6.827-6.827-17.067-17.067-17.067 0 0 0 0 0 0zM204.8 516.267c-10.24 0-17.067 6.827-17.067 13.653l-17.067 153.6c0 6.827 3.413 17.067 13.653 17.067l64.853 17.067-10.24 139.947-51.2-13.653v-51.2c0-10.24-6.827-17.067-17.067-17.067s-17.067 6.827-17.067 17.067v64.853c0 6.827 6.827 13.653 13.653 17.067l85.333 20.48c3.413 0 10.24 0 13.653-3.413s6.827-6.827 6.827-10.24l17.067-344.747c0-10.24-6.827-20.48-17.067-20.48s-17.067 6.827-17.067 13.653l-13.653 153.6-37.547-10.24 17.067-139.947c0-6.827-6.827-17.067-17.067-17.067 0 0 0 0 0 0zM385.707 755.2c-6.827 0-13.653 3.413-17.067 13.653l-37.547 133.12-68.267-37.547c-6.827-3.413-17.067 0-23.893 6.827-3.413 6.827 0 17.067 10.24 23.893l85.333 47.787c3.413 3.413 10.24 3.413 13.653 0s6.827-6.827 10.24-10.24l44.373-153.6c3.413-10.24-3.413-17.067-10.24-20.48s-6.827-3.413-6.827-3.413zM477.867 311.467c-10.24 0-17.067 6.827-17.067 17.067l-34.133 426.667h-23.893c0 0 0 0 0 0h-27.307l17.067-392.533c0-10.24-6.827-17.067-17.067-17.067s-17.067 6.827-17.067 17.067l-17.067 409.6c0 3.413 0 10.24 3.413 13.653s10.24 3.413 13.653 3.413h30.72l20.48 157.013c0 6.827 6.827 13.653 17.067 13.653h85.333c3.413 0 10.24-3.413 13.653-6.827s3.413-6.827 3.413-13.653l-34.133-614.4c0-6.827-6.827-13.653-17.067-13.653 0 0 0 0 0 0zM423.253 789.333h20.48c10.24 0 17.067-6.827 17.067-17.067l13.653-187.733 20.48 341.333h-51.2l-20.48-136.533zM597.333 755.2c0 0 0 0 0 0-10.24 0-17.067 10.24-17.067 20.48l13.653 116.053h-81.92c-10.24 0-17.067 6.827-17.067 17.067s6.827 17.067 17.067 17.067h102.4c3.413 0 10.24-3.413 13.653-6.827s3.413-10.24 3.413-13.653l-17.067-136.533c0-6.827-10.24-13.653-17.067-13.653zM716.8 516.267c-10.24 0-17.067 6.827-17.067 17.067v276.48l-88.747 13.653c-10.24 0-17.067 10.24-13.653 20.48 0 10.24 10.24 17.067 20.48 13.653l102.4-17.067c6.827 0 13.653-6.827 13.653-17.067v-290.133c0-10.24-6.827-17.067-17.067-17.067zM853.333 516.267c-3.413 0-3.413 0-6.827 0-10.24 3.413-13.653 13.653-10.24 23.893l95.573 221.867-71.68 23.893-58.027-105.813c-3.413-6.827-13.653-10.24-23.893-6.827-6.827 3.413-10.24 13.653-6.827 23.893l64.853 119.467c3.413 6.827 13.653 10.24 20.48 6.827l102.4-34.133c3.413 0 6.827-3.413 10.24-10.24 3.413-3.413 3.413-10.24 0-13.653l-102.4-238.933c0-6.827-6.827-10.24-13.653-10.24zM819.2 721.067c-10.24 0-17.067 6.827-17.067 17.067v153.6h-68.267v-68.267c0-10.24-6.827-17.067-17.067-17.067s-17.067 6.827-17.067 17.067v85.333c0 10.24 6.827 17.067 17.067 17.067h102.4c10.24 0 17.067-6.827 17.067-17.067v-170.667c0-10.24-6.827-17.067-17.067-17.067zM665.6-64h-341.333c-44.373 0-85.333 30.72-98.987 71.68l-174.080 518.827c-3.413 6.827 0 10.24 3.413 17.067 3.413 3.413 6.827 6.827 13.653 6.827h204.8c10.24 0 17.067-6.827 17.067-17.067 6.827-105.813 98.987-187.733 204.8-187.733s194.56 81.92 204.8 187.733c0 10.24 6.827 17.067 17.067 17.067h204.8c6.827 0 10.24-3.413 13.653-6.827s3.413-10.24 3.413-17.067l-174.080-518.827c-13.653-40.96-54.613-71.68-98.987-71.68zM92.16 516.267l167.253-498.347c10.24-30.72 34.133-47.787 64.853-47.787h341.333c30.72 0 58.027 20.48 64.853 47.787l167.253 498.347h-167.253c-17.067-116.053-116.053-204.8-235.52-204.8s-218.453 88.747-235.52 204.8h-167.253z" />
<glyph unicode="&#xe933;" glyph-name="Gas-Pump" d="M665.6-64h-614.4c-10.24 0-17.067 6.827-17.067 17.067v61.44c0 34.133 27.307 61.44 58.027 61.44h529.067c34.133 0 61.44-27.307 61.44-61.44v-61.44c0-10.24-6.827-17.067-17.067-17.067zM68.267-29.867h580.267v44.373c0 13.653-10.24 27.307-27.307 27.307h-529.067c-13.653-3.413-23.893-13.653-23.893-30.72v-40.96zM597.333 38.4c-10.24 0-17.067 6.827-17.067 17.067v802.133c0 37.547-30.72 68.267-68.267 68.267h-341.333c-37.547 0-68.267-30.72-68.267-68.267v-802.133c0-10.24-6.827-17.067-17.067-17.067s-17.067 6.827-17.067 17.067v802.133c0 58.027 44.373 102.4 102.4 102.4h341.333c58.027 0 102.4-44.373 102.4-102.4v-802.133c0-10.24-6.827-17.067-17.067-17.067zM529.067 584.533h-375.467c-10.24 0-17.067 6.827-17.067 17.067v273.067c0 10.24 6.827 17.067 17.067 17.067h375.467c10.24 0 17.067-6.827 17.067-17.067v-273.067c0-10.24-6.827-17.067-17.067-17.067zM170.667 618.667h341.333v238.933h-341.333v-238.933zM836.267 38.4c-44.373 0-75.093 10.24-95.573 34.133-37.547 40.96-34.133 112.64-27.307 191.147 3.413 27.307 3.413 54.613 3.413 81.92 0 160.427-37.547 238.933-112.64 238.933-10.24 0-17.067 6.827-17.067 17.067s6.827 17.067 17.067 17.067c146.773 0 146.773-204.8 146.773-273.067 0-27.307-3.413-58.027-3.413-85.333-6.827-68.267-10.24-133.12 17.067-163.84 13.653-17.067 37.547-23.893 71.68-23.893 23.893 0 37.547 6.827 51.2 20.48 37.547 44.373 23.893 157.013 10.24 242.347-6.827 37.547-10.24 71.68-10.24 95.573v129.707c0 6.827 3.413 10.24 6.827 13.653 58.027 40.96 61.44 78.507 61.44 95.573 0 27.307-85.333 150.187-259.413 187.733-10.24 3.413-13.653 10.24-13.653 20.48 3.413 10.24 10.24 13.653 20.48 13.653 184.32-40.96 286.72-177.493 286.72-221.867 0-23.893-6.827-71.68-68.267-119.467v-119.467c0-23.893 3.413-54.613 10.24-92.16 13.653-95.573 30.72-211.627-17.067-269.653-20.48-20.48-44.373-30.72-78.507-30.72zM904.533 550.4c-3.413 0-6.827 0-10.24 3.413-58.027 54.613-71.68 102.4-75.093 133.12 0 34.133 13.653 68.267 40.96 95.573 6.827 6.827 17.067 6.827 23.893 0s6.827-17.067 0-23.893c-17.067-13.653-30.72-34.133-30.72-68.267 0-37.547 23.893-75.093 61.44-109.227 6.827-6.827 6.827-17.067 0-23.893 0-3.413-6.827-6.827-10.24-6.827z" />
<glyph unicode="&#xe934;" glyph-name="Gear-1" d="M610.987-64h-197.973c-20.48 0-37.547 13.653-40.96 34.133l-17.067 122.88c-23.893 10.24-47.787 23.893-71.68 40.96l-112.64-44.373c-20.48-6.827-40.96 0-51.2 17.067l-98.987 170.667c-10.24 17.067-6.827 40.96 10.24 54.613l95.573 75.093c0 17.067-3.413 27.307-3.413 40.96s0 23.893 3.413 40.96l-92.16 75.093c-17.067 13.653-20.48 34.133-10.24 54.613l98.987 170.667c6.827 17.067 30.72 27.307 47.787 17.067l112.64-44.373c23.893 17.067 47.787 30.72 68.267 40.96l20.48 122.88c3.413 20.48 20.48 34.133 40.96 34.133h197.973c20.48 0 37.547-13.653 40.96-34.133l17.067-122.88c23.893-10.24 47.787-23.893 71.68-40.96l112.64 44.373c20.48 6.827 40.96 0 51.2-17.067l98.987-170.667c10.24-17.067 6.827-40.96-10.24-54.613l-95.573-75.093c0-10.24 3.413-27.307 3.413-40.96s0-30.72-3.413-40.96l95.573-75.093c17.067-13.653 20.48-34.133 10.24-54.613l-98.987-170.667c-10.24-17.067-30.72-27.307-51.2-17.067l-112.64 44.373c-23.893-17.067-47.787-30.72-68.267-40.96l-20.48-122.88c-3.413-20.48-20.48-34.133-40.96-34.133zM286.72 171.52c3.413 0 6.827 0 10.24-3.413 23.893-20.48 51.2-34.133 78.507-47.787 6.827-3.413 10.24-6.827 10.24-13.653l17.067-129.707c0-3.413 3.413-6.827 6.827-6.827h197.973c3.413 0 6.827 3.413 6.827 6.827l17.067 133.12c0 6.827 3.413 10.24 10.24 13.653 27.307 10.24 51.2 27.307 78.507 47.787 3.413 3.413 10.24 3.413 17.067 3.413l122.88-47.787c3.413 0 6.827 0 10.24 3.413l98.987 170.667c3.413 3.413 0 6.827-3.413 10.24l-102.4 81.92c-3.413 3.413-6.827 10.24-6.827 17.067 0 13.653 3.413 30.72 3.413 47.787s0 34.133-3.413 47.787c0 6.827 0 10.24 6.827 17.067l102.4 81.92c3.413 3.413 3.413 6.827 0 10.24l-98.987 170.667c-3.413 3.413-6.827 3.413-10.24 3.413l-122.88-47.787c-6.827-3.413-13.653 0-17.067 3.413-23.893 20.48-51.2 34.133-78.507 47.787-6.827 3.413-10.24 6.827-10.24 13.653l-17.067 129.707c6.827-13.653 3.413-10.24 0-10.24h-197.973c-3.413 0-6.827-3.413-6.827-6.827l-17.067-129.707c0-6.827-3.413-10.24-10.24-13.653-27.307-10.24-51.2-27.307-78.507-47.787-6.827-3.413-13.653-3.413-17.067 0l-122.88 47.787c-3.413 0-6.827 0-10.24-3.413l-98.987-170.667c-3.413-3.413 0-6.827 3.413-10.24l102.4-81.92c3.413-3.413 6.827-10.24 6.827-17.067-3.413-17.067-3.413-34.133-3.413-47.787s0-27.307 3.413-47.787c0-6.827 0-10.24-6.827-17.067l-102.4-81.92c-3.413-3.413-3.413-6.827 0-10.24l98.987-170.667c3.413-3.413 6.827-3.413 10.24-3.413l122.88 47.787c-3.413 10.24 0 10.24 0 10.24zM515.413 243.2c-112.64 0-204.8 92.16-204.8 204.8s92.16 204.8 204.8 204.8 204.8-92.16 204.8-204.8-92.16-204.8-204.8-204.8zM515.413 618.667c-95.573 0-170.667-75.093-170.667-170.667s75.093-170.667 170.667-170.667 170.667 75.093 170.667 170.667-75.093 170.667-170.667 170.667z" />
</font>
</defs>
</svg>
